<?xml version="1.0" standalone="no"?>
<!DOCTYPE svg PUBLIC "-//W3C//DTD SVG 20010904//EN"
 "http://www.w3.org/TR/2001/REC-SVG-20010904/DTD/svg10.dtd">
<svg version="1.0" xmlns="http://www.w3.org/2000/svg"
 width="2000.000000pt" height="1500.000000pt" viewBox="0 0 2000.000000 1500.000000"
 preserveAspectRatio="xMidYMid meet">

<g transform="translate(0.000000,1500.000000) scale(0.100000,-0.100000)"
fill="#000000" stroke="none">
<path d="M9650 12484 c-371 -44 -711 -146 -1040 -310 -601 -301 -1086 -786
-1388 -1391 -221 -441 -324 -880 -325 -1383 0 -224 10 -345 44 -540 227 -1294
1246 -2306 2543 -2525 1599 -270 3133 735 3529 2311 111 440 122 902 32 1362
-87 448 -282 880 -565 1257 -294 391 -667 699 -1105 915 -341 168 -659 261
-1035 305 -167 19 -528 18 -690 -1z m768 -243 c576 -88 1087 -331 1522 -724
434 -392 758 -961 875 -1541 75 -370 74 -801 -1 -1160 -56 -262 -120 -448
-239 -691 -664 -1348 -2264 -1956 -3656 -1390 -736 300 -1311 885 -1604 1634
-188 482 -237 1080 -130 1607 81 398 263 806 505 1129 505 675 1233 1080 2080
1159 119 11 519 -3 648 -23z"/>
<path d="M9880 11133 c-448 -43 -812 -220 -1126 -545 -510 -528 -634 -1271
-324 -1936 231 -494 696 -853 1246 -962 264 -53 635 -29 859 54 46 17 36 21
-15 6 -54 -16 -292 -40 -388 -40 -245 1 -518 68 -754 185 -449 223 -749 610
-844 1090 -25 123 -25 375 0 500 77 392 284 710 592 912 104 68 221 118 354
151 93 23 125 26 280 27 184 0 236 -7 375 -51 359 -115 626 -399 718 -764 27
-110 29 -321 4 -422 -42 -171 -124 -324 -235 -441 -102 -106 -220 -177 -368
-219 -103 -29 -304 -31 -404 -4 -426 115 -648 538 -480 911 58 130 171 239
300 291 95 39 243 45 337 15 137 -44 249 -154 293 -286 18 -54 22 -83 18 -149
-7 -139 -72 -243 -190 -306 -55 -30 -72 -34 -138 -35 -60 0 -86 5 -130 26
-105 49 -163 135 -163 239 0 131 86 222 205 219 l53 -2 -50 -6 c-103 -14 -165
-77 -173 -177 -9 -109 55 -198 167 -231 163 -47 317 75 329 263 4 62 1 80 -21
127 -35 78 -97 141 -176 180 -59 29 -74 32 -151 32 -115 -1 -180 -27 -266
-107 -48 -45 -74 -80 -101 -137 -33 -68 -38 -86 -41 -173 -4 -80 0 -107 18
-162 70 -210 308 -366 560 -366 169 0 280 49 410 180 98 98 144 177 186 315
23 77 27 109 28 220 1 110 -3 142 -22 205 -90 286 -328 502 -648 587 -134 35
-347 38 -466 5 -194 -53 -333 -135 -484 -286 -243 -243 -354 -513 -354 -861 0
-157 18 -272 65 -412 119 -356 365 -629 731 -812 514 -257 1177 -234 1582 56
295 210 539 605 622 1005 120 583 -45 1140 -464 1562 -301 303 -690 487 -1111
526 -106 10 -171 11 -245 3z"/>
<path d="M3825 5064 c89 -16 1640 -173 1645 -167 6 7 30 136 30 162 0 8 -258
11 -847 10 -467 -1 -839 -3 -828 -5z"/>
<path d="M5626 5038 c-3 -18 -102 -584 -221 -1258 -118 -674 -218 -1237 -221
-1253 l-6 -27 393 2 393 3 48 275 c26 151 50 289 53 307 l6 31 337 4 c304 4
344 6 413 26 138 37 269 113 376 215 l62 59 533 -56 c293 -31 543 -56 554 -56
18 0 23 9 33 63 6 34 14 74 17 89 l6 28 -546 2 -545 3 34 55 c19 30 53 99 76
153 34 78 46 97 63 97 21 0 823 -84 907 -95 l47 -7 11 69 c6 37 14 80 17 96
l6 27 -490 0 -490 0 18 58 c10 31 25 99 34 151 9 52 17 95 18 96 2 1 203 -20
448 -46 245 -26 457 -48 471 -48 25 -1 27 3 38 62 6 34 14 74 17 90 l6 27
-485 0 -484 0 -5 158 c-3 86 -4 158 -3 159 2 3 934 -94 981 -102 l31 -5 12 69
c6 39 11 81 11 95 l0 26 -535 0 c-421 0 -535 3 -535 13 0 6 -14 41 -30 75 -54
115 -167 209 -315 263 -43 16 -45 18 -15 14 189 -26 1465 -154 1470 -148 4 4
14 45 22 91 l15 82 -1523 0 -1522 0 -6 -32z m1041 -651 c41 -22 56 -50 55
-102 -1 -73 -53 -359 -74 -402 -37 -79 -114 -103 -330 -103 -91 0 -128 3 -128
12 0 16 100 590 106 607 7 21 328 11 371 -12z"/>
<path d="M8800 5059 c0 -11 -437 -2500 -445 -2536 l-5 -23 874 0 874 0 8 58
c8 51 12 57 35 60 14 2 261 -22 549 -53 287 -31 525 -53 528 -51 5 5 30 138
31 164 1 9 -117 12 -559 12 l-561 0 6 33 c3 17 16 92 29 165 13 73 25 134 27
136 2 1 249 -24 548 -56 299 -32 546 -56 549 -54 5 5 32 143 32 164 0 9 -119
12 -560 12 l-561 0 7 35 6 35 -482 0 -482 0 5 22 c3 11 16 81 28 155 l22 133
246 0 c239 1 267 -2 1023 -82 428 -45 780 -79 784 -75 7 7 33 129 34 160 0 16
-37 17 -650 17 l-650 0 5 23 c7 32 55 304 55 311 0 3 14 6 31 6 30 0 1113
-113 1205 -125 l42 -6 11 68 c6 37 14 80 17 96 l6 27 -650 0 -649 0 13 73 c7
39 13 80 13 90 1 16 -24 17 -389 17 l-390 0 5 23 c2 12 14 78 25 147 11 69 22
135 25 147 l5 23 422 2 421 3 34 102 35 103 36 -5 c20 -3 273 -30 562 -60 289
-30 539 -57 556 -60 l32 -6 11 68 c6 38 14 80 17 95 l6 28 -601 2 -600 3 53
160 53 160 39 -3 c21 -1 272 -27 558 -57 285 -30 522 -55 526 -55 4 0 13 30
20 68 6 37 14 77 17 90 l5 22 -1436 0 c-1002 0 -1436 -3 -1436 -11z"/>
<path d="M11796 5053 c-7 -24 -446 -2524 -446 -2540 0 -10 85 -13 390 -13 215
0 390 3 390 8 1 4 24 142 53 307 l52 300 340 6 c333 5 342 6 428 32 143 44
252 107 366 213 l61 56 531 -57 c292 -31 541 -55 552 -53 17 2 23 15 33 68 7
36 13 75 13 88 l1 22 -540 0 c-297 0 -540 2 -540 5 0 2 14 28 31 57 18 29 51
96 74 148 30 66 48 96 61 98 11 1 228 -20 484 -47 255 -27 466 -48 469 -45 6
5 30 134 31 162 l0 22 -486 0 c-419 0 -485 2 -481 14 13 34 31 107 46 196 l17
95 35 -3 c19 -2 225 -23 458 -48 234 -25 431 -43 440 -42 14 3 39 97 40 156
l1 22 -485 0 -485 0 5 78 c4 42 2 113 -3 157 -5 44 -8 81 -7 83 1 1 229 -22
506 -51 320 -35 506 -51 510 -44 4 5 10 33 13 61 4 28 9 66 12 84 l6 32 -534
0 -534 0 -23 55 c-52 125 -148 220 -279 276 -42 18 -58 29 -44 29 13 0 341
-34 729 -75 387 -41 708 -75 712 -75 5 0 14 28 20 63 6 34 14 74 17 90 l6 27
-1521 0 c-1439 0 -1520 -1 -1525 -17z m1035 -666 c40 -20 59 -52 59 -100 0
-54 -59 -376 -74 -405 -40 -77 -92 -95 -299 -100 l-168 -4 6 23 c6 30 105 594
105 604 0 4 75 5 168 3 136 -2 174 -6 203 -21z"/>
<path d="M14965 5048 c-8 -36 -445 -2525 -445 -2537 0 -8 249 -11 870 -11
l870 0 5 23 c11 52 105 603 105 619 0 17 -25 18 -475 18 -449 0 -475 1 -475
18 0 16 34 216 45 270 l5 22 390 0 c361 0 389 1 394 18 3 9 26 134 51 277 25
143 48 270 50 283 l5 22 -390 0 c-305 0 -390 3 -390 13 0 6 11 77 25 157 13
80 25 151 25 158 0 9 92 12 425 12 234 0 425 2 425 4 0 3 45 143 100 313 55
169 103 316 106 326 5 16 -40 17 -855 17 l-861 0 -5 -22z"/>
<path d="M3720 4673 c56 -9 1675 -180 1679 -177 4 4 31 145 31 167 0 16 -47
17 -867 16 -478 -1 -857 -4 -843 -6z"/>
<path d="M4465 4189 c451 -49 831 -88 845 -86 22 2 26 8 37 72 6 39 12 78 12
88 1 16 -46 17 -856 16 l-858 -1 820 -89z"/>
<path d="M9845 4273 c55 -8 1618 -173 1635 -173 13 0 20 15 29 63 6 34 14 74
17 90 l6 27 -859 -1 c-472 -1 -844 -4 -828 -6z"/>
<path d="M3572 3885 c6 -7 1681 -185 1687 -179 6 5 30 134 31 162 l0 22 -862
0 c-474 0 -859 -2 -856 -5z"/>
<path d="M3515 3484 c35 -7 1631 -174 1657 -174 23 0 26 5 37 73 7 39 15 80
17 90 5 16 -40 17 -863 16 -477 -1 -859 -3 -848 -5z"/>
<path d="M3485 3084 c19 -4 1623 -174 1636 -174 3 0 12 35 19 77 6 42 14 83
17 90 4 11 -146 13 -843 12 -467 -1 -840 -3 -829 -5z"/>
<path d="M6655 3084 c19 -4 1625 -174 1637 -174 4 0 11 33 18 73 6 39 14 80
16 90 5 16 -39 17 -843 16 -466 -1 -839 -3 -828 -5z"/>
<path d="M13624 2999 c456 -49 831 -87 834 -84 6 6 31 132 32 158 0 16 -46 17
-847 16 l-848 -1 829 -89z"/>
<path d="M3415 2684 c20 -4 1622 -174 1635 -174 4 0 13 35 20 77 6 42 14 83
17 90 4 11 -146 13 -843 12 -467 -1 -840 -3 -829 -5z"/>
<path d="M6585 2684 c20 -4 1624 -174 1637 -174 3 0 11 33 18 73 6 39 14 80
16 90 5 16 -39 17 -843 16 -466 -1 -839 -3 -828 -5z"/>
<path d="M12755 2683 c132 -18 1629 -172 1633 -168 6 6 31 131 32 158 0 16
-46 17 -847 16 -467 -1 -834 -4 -818 -6z"/>
</g>
</svg>
