


<svg version="1.1" id="svg10202" width="80" height="14.24" viewBox="0 0 80 14.24" xmlns="http://www.w3.org/2000/svg">
  <defs id="defs10206"></defs>
  <g id="g10208">
    <g id="g10354">
      <path style="fill:#f060a0;stroke-width:0.08" d="M 64.570631,14.163007 60.941262,14.12 l -0.0081,-0.44 -0.0081,-0.44 3.757431,-0.02219 c 2.066587,-0.0122 3.840194,-0.0021 3.941349,0.02251 0.168996,0.04107 0.181976,0.08181 0.16,0.502185 L 68.76,14.2 68.48,14.203 c -0.154,0.0017 -1.913216,-0.01635 -3.909369,-0.04 z M 73.616008,13.78 73.64,13.32 73.92,13.2984 c 0.504258,-0.0389 1.471665,-0.27448 1.893998,-0.461228 1.59202,-0.703958 2.813824,-2.224206 3.116034,-3.877174 0.188174,-1.029238 0.19509,-1.04 0.668253,-1.04 H 80 V 8.2433728 C 80,8.7149768 79.778094,9.71312 79.542301,10.30212 78.944747,11.794782 77.552721,13.185572 76.05696,13.784366 75.452266,14.026442 74.469118,14.24 73.95938,14.24 H 73.592015 Z M 52.6,14.08 51.32,14.04 51.33848,13.608182 c 0.01017,-0.2375 0.03499,-0.448325 0.05517,-0.4685 0.02018,-0.02017 1.33651,-0.01005 2.925189,0.0225 l 2.888508,0.05918 -0.02367,0.449089 -0.02367,0.449089 -1.64,2.4e-4 C 54.618,14.119897 53.304,14.102 52.6,14.08 Z M 23.021433,13.862022 c 0.143788,-0.0178 0.359788,-0.01744 0.48,8.16e-4 0.120212,0.01825 0.0026,0.03282 -0.261433,0.03237 -0.264,-4.8e-4 -0.362355,-0.01538 -0.218567,-0.03319 z M 46.276652,13.5 c -0.02108,-0.055 -0.02895,-1.81 -0.01749,-3.9 L 46.28,5.8 46.74,5.7760077 47.2,5.7520154 V 9.5212672 C 47.2,11.96652 47.17091,13.344874 47.11719,13.445259 47.05416,13.563024 46.948419,13.6 46.674674,13.6 c -0.213982,0 -0.375222,-0.04051 -0.398022,-0.1 z M 41.493334,13.46667 C 41.464,13.437334 41.44,12.193104 41.44,10.701713 V 7.9900919 L 41.237545,7.5621369 C 41.014255,7.0901414 40.590016,6.6643318 40.063605,6.383852 39.782753,6.2342096 39.595812,6.2008712 39.04,6.2013058 38.447734,6.2017698 38.309672,6.2301037 37.969924,6.4209188 37.475789,6.698443 37.330889,6.6961664 37.125447,6.4076504 36.854994,6.0278328 36.906442,5.8904031 37.42,5.6208482 38.04933,5.290527 38.624282,5.1696667 39.317086,5.2220634 40.826479,5.3362185 42.173274,6.558021 42.379212,8 c 0.03456,0.242 0.04994,1.583 0.03417,2.98 l -0.02867,2.54 h -0.419026 c -0.230464,0 -0.443026,-0.024 -0.472358,-0.05333 z M 11.181566,13.063862 c -0.02026,-0.167124 -0.01918,-1.952503 0.0024,-3.9675076 L 11.22324,5.4327089 11.671619,5.4563545 12.12,5.48 12.13969,6.76 c 0.01083,0.704 -0.0072,2.468 -0.04,3.92 L 12.04,13.32 11.629203,13.34386 11.218406,13.36772 Z M 53.935486,10.02 51.052342,7.08 51.342407,6.78 c 0.159535,-0.165 0.323101,-0.3 0.363479,-0.3 0.07775,0 5.754185,5.727623 5.802271,5.854594 0.02678,0.07071 -0.532253,0.615072 -0.638842,0.622076 -0.02788,0.0018 -1.3481,-1.31967 -2.933829,-2.93667 z m -16.38108,0.06 c 0,-1.034 0.0114,-1.457 0.02534,-0.94 0.01393,0.517 0.01393,1.363 0,1.88 -0.01394,0.517 -0.02534,0.094 -0.02534,-0.94 z m -17.694232,-1 c 8.88e-4,-0.176 0.01727,-0.23858 0.03641,-0.1390672 0.01913,0.099513 0.01841,0.2435128 -0.0016,0.32 C 19.874942,9.33742 19.859285,9.2559968 19.860173,9.08 Z M 75.22783,9.2464152 C 74.211453,8.9998792 73.135055,8.178008 72.697398,7.3143325 72.210097,6.3526913 72.112869,5.1982518 72.43351,4.1810612 c 0.30434,-0.9654806 1.270014,-1.9659549 2.260552,-2.3420176 0.576584,-0.2189031 1.648172,-0.2957563 2.283496,-0.16377 1.028872,0.2137446 2.068192,0.9829294 2.560322,1.8948527 0.435497,0.806984 0.574528,1.9646976 0.342786,2.8544099 -0.53668,2.0604566 -2.609412,3.317539 -4.652836,2.821879 z M 77.344321,8.1205976 C 77.913141,7.8653263 78.465415,7.3245978 78.774825,6.72 78.97738,6.3242002 79,6.1996359 79,5.48 79,4.7652295 78.97607,4.6312694 78.775385,4.2225937 77.679704,1.9913473 74.561066,1.98322 73.472203,4.2087734 73.088231,4.9935839 73.13677,6.232485 73.579648,6.9511902 c 0.391273,0.6349607 1.137918,1.1896778 1.840026,1.3670418 0.513833,0.1298024 1.397132,0.0391 1.924647,-0.1976344 z M 31.711083,8.12 c 1.6e-4,-0.572 0.01288,-0.7955028 0.02832,-0.496673 0.01543,0.29883 0.01532,0.7668298 -2.4e-4,1.0400002 C 31.723586,8.9364968 31.710958,8.692 31.711098,8.12 Z M 12.64151,8.4819072 C 12.499924,8.30314 12.401657,8.1110728 12.423139,8.0550912 c 0.04789,-0.1248141 3.641108,-2.7859508 3.82759,-2.834717 0.130321,-0.03408 0.551955,0.4731156 0.547162,0.6581966 -0.0016,0.061689 -2.659805,2.0637835 -3.750655,2.8248988 -0.131433,0.091704 -0.177567,0.06651 -0.405726,-0.2215624 z m 7.204806,-0.3685736 c 0.0038,-0.093196 0.02279,-0.112152 0.04833,-0.048334 0.02311,0.05775 0.02027,0.1267496 -0.0063,0.1533336 -0.02658,0.026583 -0.04549,-0.020667 -0.04202,-0.105 z M 4.4288397,7.2 c 0,-0.418 0.013484,-0.589 0.029963,-0.38 0.01648,0.209 0.01648,0.551 0,0.76 -0.01648,0.209 -0.029963,0.038 -0.029963,-0.38 z M 27.695596,7.08 c 0.0016,-0.132 0.01956,-0.1763149 0.03984,-0.098477 0.02028,0.077837 0.01895,0.1858373 -0.003,0.24 C 27.710561,7.2756851 27.693966,7.212 27.695596,7.08 Z m 4.011829,-0.8 c 3.2e-4,-0.352 0.01435,-0.4860484 0.03125,-0.2978854 0.0169,0.1881631 0.01666,0.4761631 -5.6e-4,0.64 C 31.720962,6.7859516 31.707134,6.632 31.707425,6.28 Z m 0.44237,0.38 C 32.050286,6.5331155 32.053115,6.5302859 32.18,6.6297956 32.31326,6.7343051 32.355638,6.8 32.289795,6.8 c -0.01661,0 -0.07961,-0.063 -0.14,-0.14 z M 51.36,5.8047214 c 0,-0.2394033 0.03813,-0.4588412 0.08472,-0.4876398 0.0466,-0.028799 1.378597,-0.025953 2.96,0.00632 L 57.28,5.3820912 V 5.8110456 6.24 H 54.32 51.36 Z M 19.34,5.2156167 18.96,5.1912334 V 4.8924246 c 0,-0.8714379 0.517302,-1.9862781 1.271724,-2.7407004 C 21.09109,1.2923583 22.092468,0.88 23.32,0.88 c 1.230647,0 2.234277,0.4139247 3.081174,1.2707618 C 27.183286,2.9420547 27.68,4.0241923 27.68,4.9368079 V 5.28 H 27.23749 C 26.95125,5.28 26.785419,5.244685 26.76791,5.18 26.753023,5.125 26.70143,4.8700236 26.653258,4.6133858 26.447843,3.5190258 25.749304,2.6138706 24.741906,2.136689 24.233658,1.895943 24.145086,1.88 23.315851,1.88 22.45503,1.88 22.415647,1.88793 21.823207,2.1807345 20.802818,2.685038 20.044589,3.6959682 19.942126,4.6887371 19.917706,4.9253219 19.857746,5.1461408 19.808865,5.1794457 19.75999,5.2127506 19.549,5.2290275 19.34,5.2156167 Z M 1.22,4.9001714 c 0.649,-0.013447 1.711,-0.013447 2.36,0 0.649,0.013447 0.118,0.024449 -1.18,0.024449 -1.298,0 -1.829,-0.011002 -1.18,-0.024449 z M 46.409824,4.1598338 C 45.789036,4.0132662 45.402666,3.4917143 45.402666,2.8002934 c 0,-0.861252 0.604173,-1.4079626 1.485497,-1.3442134 0.773857,0.055976 1.19964,0.4799534 1.255342,1.2500181 0.0517,0.7146867 -0.323691,1.2666002 -0.983505,1.4460023 -0.357061,0.097084 -0.371117,0.097229 -0.750176,0.00773 z M 47.12,3.2 c 0.291226,-0.2912264 0.146073,-0.8632358 -0.225714,-0.8894786 -0.26473,-0.018686 -0.3764,0.021022 -0.514286,0.182872 -0.193076,0.2266328 -0.175248,0.438631 0.05636,0.670243 C 46.674437,3.4017095 46.905974,3.4140254 47.12,3.2 Z M 7.9263158,0.19333334 C 7.9301542,0.1001379 7.949111,0.08118138 7.9746491,0.145 c 0.02311,0.05775 0.020268,0.12675 -0.00632,0.15333334 -0.026583,0.0265833 -0.045491,-0.0206667 -0.042018,-0.105 z" id="path10358"></path>
      <path style="fill:#fa911f;stroke-width:0.08" d="M 22.130205,13.751179 C 21.076562,13.503753 19.900105,12.512222 19.362908,11.418871 18.948453,10.575334 18.864365,9.8433816 18.896621,7.36 L 18.92,5.56 h 0.48 0.48 l 0.0031,2.2 c 0.0034,2.413286 0.02873,2.592975 0.479797,3.40642 0.540786,0.975244 1.554505,1.62664 2.639809,1.69629 1.558802,0.100038 2.863011,-0.734039 3.492588,-2.233604 0.168797,-0.402053 0.18282,-0.575369 0.222421,-2.749106 l 0.04227,-2.32 0.460968,-0.024021 c 0.323302,-0.016847 0.472332,0.00704 0.499023,0.08 0.02093,0.057212 0.0073,1.1480212 -0.03033,2.4240212 -0.07972,2.7045788 -0.140843,2.9981218 -0.8376,4.0225178 -0.335505,0.493272 -0.542104,0.699013 -1.027724,1.023462 -0.871632,0.582346 -1.459544,0.755969 -2.52602,0.745984 -0.472076,-0.0044 -0.997728,-0.04077 -1.168116,-0.08078 z m 8.637276,-0.290365 C 30.741366,13.4347 30.72,11.655334 30.72,9.5066664 V 5.6 h 0.474122 0.474122 l 0.02588,0.7 c 0.01423,0.385 0.0079,2.158 -0.01412,3.94 l -0.04,3.24 -0.412519,0.01415 c -0.226886,0.0078 -0.433886,-0.0072 -0.46,-0.03333 z M 36.559218,10.78 36.558437,8.04 36.354362,7.6 C 36.083218,7.0153946 35.741372,6.6691686 35.16,6.3903381 34.373187,6.0129765 33.508222,6.0878751 32.73369,6.6004358 L 32.411756,6.8134818 32.163114,6.6296521 C 31.854703,6.4016346 31.773302,6.1262996 31.954955,5.9255742 32.180548,5.676297 33.050446,5.295872 33.620958,5.1969958 34.98751,4.9601565 36.520702,5.7107549 37.14041,6.92 c 0.347732,0.678533 0.377644,0.983467 0.37864,3.86 l 9.5e-4,2.74 h -0.48 -0.48 l -8e-4,-2.74 z M 3.44,9.8533336 c 0,-1.884667 0.014922,-3.441667 0.03316,-3.4600002 0.018238,-0.018333 0.2342382,-0.021002 0.48,-0.00593 L 4.4,6.4148079 V 9.847404 13.28 H 3.92 3.44 Z M 0.14,5.8652426 C 0.02837028,5.8357608 0,5.7401403 0,5.3933802 V 4.9584923 L 3.94,4.9792462 7.88,5 V 5.44 5.88 L 4.08,5.891109 C 1.99,5.8972182 0.217,5.8855786 0.14,5.8652426 Z M 3.52,4.1008002 C 3.52,3.218368 4.0344814,2.0586322 4.7447442,1.3400012 5.5022482,0.57357238 6.7522469,0.00737325 7.7,0.00138909 7.9152414,3.004622e-5 7.92,0.01018599 7.92,0.4709165 V 0.94183296 L 7.5569451,0.99627648 C 6.2954661,1.1854469 5.3016098,1.9024188 4.7930938,2.9901298 4.6671331,3.2595584 4.5358027,3.678 4.5012485,3.92 L 4.4384226,4.36 3.9792113,4.3839923 3.52,4.4079846 Z" id="path10356"></path>
    </g>
  </g>
</svg>
