


<svg version="1.1" id="svg10963" width="336" height="385.33334" viewBox="0 0 336 385.33334" xmlns="http://www.w3.org/2000/svg">
  <defs id="defs10967"></defs>
  <g id="g10969">
    <path style="fill:#a86f51;stroke:none;stroke-width:1.33333" d="M 288,20.748 C 278.376,23.092134 271.36267,33.775467 261.33333,34.236667 250.776,34.722001 243.21733,22.118667 232,21.477334 218.28533,20.693467 211.044,34.604001 198.66667,34.516534 188.60133,34.445334 182.316,23.671734 172,22.792134 c -15.02267,-1.2808 -21.60667,11.629067 -34.66667,12.499067 -10.1876,0.678533 -17.6612,-11.102534 -28,-12.377601 -14.277997,-1.760933 -19.794263,8.751601 -31.999997,12.195467 -15.845066,4.470667 -27.953466,-24.524227 -43.715066,-8.2644 -15.393467,15.88 5.8896,28.782667 8.815866,43.822001 3.079067,15.824533 -11.950133,27.960667 -11.7428,44.000002 0.1928,14.91853 14.477067,25.472 13.042267,40 -1.546667,15.65867 -12.6584,25.53733 -11.676,42.66667 0.755867,13.17866 13.912533,22.32 12.140933,36 -1.919333,14.82133 -13.407333,23.73733 -12.074,40 1.0112,12.33466 12.088667,21.208 12.904267,33.33333 1.099067,16.34134 -22.297733,27.828 -11.683067,45.32667 14.545067,23.98 33.01,-11.452 49.320934,-4.444 11.37,4.88533 18.295603,13.71467 32.000003,10.40667 8.91253,-2.152 15.714,-12.79867 25.33333,-11.85067 9.82933,0.96667 16.42533,11.084 26.66667,12.31333 14.41466,1.73067 20.73866,-11.256 33.33333,-12.72266 11.06667,-1.28934 19.212,11.75866 30.66667,12.46533 12.88,0.79467 19.27466,-10.436 30.66666,-12.436 13.72934,-2.41067 23.03867,17.30267 37.328,11.94667 29.15734,-10.92934 -8.424,-41.852 -2.86133,-59.00534 4.80133,-14.804 13.552,-23.18 10.60267,-40 -2.05067,-11.68667 -12.80667,-19.57867 -12.05334,-32 0.956,-15.77467 14.16134,-25.43333 12.072,-42.66667 -1.44,-11.86933 -11.856,-20.268 -12.788,-32 -1.06266,-13.36266 11.07334,-24.06626 12.64267,-37.33333 1.50267,-12.70133 -6.20133,-21.240402 -11.05333,-32.000002 C 287.29733,65.095868 307.48,54.878934 307.736,38.666667 307.896,28.494667 298.532,18.182667 288,20.748 m 1.27333,13.467067 c 5.35467,-0.802666 6.056,4.598667 4.624,8.452667 -4,10.7624 -13.652,18.2252 -13.656,30.665601 -0.005,13.002 10.95734,21.218133 12.808,33.333335 2.664,17.4388 -12.49066,29.204 -11.66266,46.66667 0.656,13.848 13.616,23.29866 13.10266,37.33333 -0.53466,14.636 -14.43466,24.33733 -12.92,40 1.132,11.68933 10.516,19.62667 12.644,30.66667 2.256,11.712 -3.824,19.32 -8.448,29.33333 -8.244,17.856 1.99867,28.73734 9.48934,44 1.58266,3.22534 3.08133,9.324 -2.11867,10.06534 -10.16533,1.448 -18.96133,-12.976 -30.46933,-12.20667 -11.024,0.73867 -17.55734,11.40667 -28,12.62533 -13.08,1.52534 -20.91467,-12.476 -34.66667,-11.75866 -11.21867,0.58533 -17.49867,11.45466 -28,12.692 -11.35333,1.33866 -19.51867,-11.24267 -30.66667,-12.49867 -13.92506,-1.568 -20.646,12.40933 -33.33333,12.88267 -9.7128,0.36266 -15.245733,-9.66267 -24,-12.26 -8.790267,-2.608 -18.362667,2.944 -25.333333,7.70533 -3.3244,2.27067 -8.5368,7.16533 -12.904267,4.64267 -5.541333,-3.2 -0.402667,-11.00267 1.832267,-14.556 8.184666,-13.01467 13.410533,-25.11334 5.991733,-40 -4.159333,-8.34667 -10.2848,-15.37467 -9.320933,-25.33334 1.3208,-13.64933 13.625066,-22.95467 12.928,-37.33333 C 56.571867,216.51334 46.127067,208.08934 44.284,196 41.962133,180.77067 54.700933,171.66 55.875467,157.33334 57.282133,140.17467 43.9564,130.56294 42.950667,114.66667 42.2024,102.84054 51.819467,94.740935 54.7624,84.000001 58.212533,71.407468 52.5284,60.754268 45.525733,50.666668 43.1396,47.229334 38.2012,40.888001 42.3436,36.863201 c 3.968133,-3.8556 10.391467,2.050933 13.6564,4.1964 7.8992,5.191066 17.2132,9.2092 26.666667,5.614266 8.2572,-3.14 14.406133,-12.319466 24.000003,-11.597733 12.1488,0.914 18.3988,14.220667 32,12.671867 10.77333,-1.226934 17.47333,-12.085867 28,-12.915734 12.008,-0.946533 19.77866,12.099067 32,12.536 11.932,0.426667 18.41466,-11.2408 29.33333,-12.518533 12.28933,-1.438133 19.84933,11.3608 32,11.739733 12.35867,0.385467 18.43333,-10.749466 29.27333,-12.3744 M 118.66667,125.33334 120,176 c -3.42027,0 -25.349333,0.76934 -15.0052,9.296 4.57707,3.77334 12.28707,-1.2 15.3488,5.568 2.33533,5.16267 0.98973,12.932 0.98973,18.46934 0,15.54933 3.1976,33.148 -17.33333,33.33333 v 10.66667 h 45.33333 V 242.66667 C 123.46213,242.432 132,205.00267 132,186.66667 c 10.912,0 20.68133,2.47733 22.66667,-10.66667 H 132 c 0,-11.49466 -6.23867,-39.12933 3.03867,-47.3148 4.84933,-4.2792 12.32,-3.35146 18.29466,-3.35186 15.20134,-9.4e-4 43.75867,-5.50894 57.308,1.572 7.208,3.76693 4.03467,9.904 8.06267,14.95733 2.35467,2.95333 8.17867,2.492 9.82,-0.95333 4.65333,-9.7708 -6.09867,-23.6272 -15.19067,-25.71694 -17.43866,-4.00813 -39.43866,-0.52573 -57.33333,-0.52573 -6.16133,0 -15.4,1.70013 -21.136,-0.80453 -5.46373,-2.3856 -3.60667,-9.21667 -5.06773,-13.86214 -3.09227,-9.832265 -13.33987,-14.820132 -23.1296,-12.875465 -27.26267,5.415333 -14.037603,43.870405 12,38.208805 M 120,114.66667 c -3.41973,-4e-4 -7.30533,0.45253 -10.64093,-0.42387 -17.67987,-4.64546 6.04306,-28.549732 10.2696,-8.89093 0.64413,2.99627 0.36893,6.27013 0.37133,9.3148 m 56,177.33334 c 13.42,7.80533 18.64667,-7.24667 25.70667,-17.33334 15.42,-22.02933 44.05333,-48.984 44.788,-77.33333 1.24266,-47.97067 -67.848,-63.90267 -87.36267,-20 -9.376,21.09333 -2.148,47.11866 18.20133,58.82666 5.11867,2.94534 25.74534,5.124 26.824,10.704 0.88,4.54934 -4.44,9.73867 -6.79066,13.136 -7.216,10.42667 -15.932,20.512 -21.36667,32.00001 M 205.33333,156 v 6.66667 c 44.85334,6.72267 34.16667,73.352 -10.66666,67.75333 -21.716,-2.712 -33.77867,-26.64266 -26.48934,-46.42 3.04267,-8.25333 9.55867,-12.364 15.4,-18.32666 2.492,-2.54534 2.888,-7.272 6.17867,-8.86934 4.20533,-2.04133 11.00133,-0.804 15.57733,-0.804 m -14.66666,4 C 190.608,176.53067 176.09733,172.92 172,186.66667 c 19.656,0 30.608,-5.27333 30.66667,-26.66667 z" id="path10991"></path>
  </g>
</svg>
