


<svg version="1.1" id="svg9500" width="1062.6667" height="1133.3333" viewBox="0 0 1062.6667 1133.3333" xmlns="http://www.w3.org/2000/svg">
  <defs id="defs9504"></defs>
  <g id="g9506">
    <g id="g9546">
      <path style="fill:#b6d6ef;stroke-width:1.33333" d="M 536.00002,758.66664 V 567.99998 H 392.66668 c -126.51852,0 -143.33334,0.23463 -143.33334,2 0,1.1 -1.15347,2 -2.56327,2 -3.32029,0 -4.48602,-3.7707 -8.65632,-28 -12.74093,-74.02445 -18.48033,-150.39454 -15.61164,-207.73283 0.83287,-16.64695 1.51062,-31.91665 1.5061,-33.93269 -0.008,-3.53472 5.5596,-6.44952 155.9918,-81.6678 l 156.00001,-78.00225 v 4.00112 c 0,2.20063 0.45,3.87055 1,3.71095 2.74676,-0.79707 9.66666,3.0198 9.66666,5.33193 0,3.81085 -1.30832,4.373 -5.33333,2.29159 -2.01405,-1.04151 -4.03797,-1.51758 -4.49763,-1.05794 -0.45964,0.45964 -0.8357,93.13836 -0.8357,205.95269 v 205.11698 l 146.32055,-0.33921 146.32055,-0.3392 1.15703,-6.33334 c 1.12016,-6.1315 2.48612,-7.3837 5.77372,-5.29284 1.10646,0.70371 1.24317,2.77015 0.46174,6.97959 -0.61054,3.28896 -1.79032,10.17992 -2.62172,15.31325 -2.58274,15.94684 -12.99676,56.38355 -19.98898,77.61549 -45.6389,138.58291 -125.96906,236.27354 -228.75622,278.19365 -13.1321,5.35572 -44.18655,15.52419 -47.41078,15.52419 -0.77977,0 -1.25589,-72.28266 -1.25589,-190.66667 z m 131.80227,25.85346 c 9.65121,-4.427 19.25629,-6.3219 26.90337,-5.30747 l 6.3525,0.84269 -3.16408,-7.69434 c -3.1367,-7.62771 -3.16411,-8.1273 -3.16646,-57.69433 -0.003,-47.42496 0.13724,-50.30778 2.70834,-55.97603 1.49088,-3.28681 3.67069,-7.03681 4.84402,-8.33333 1.96935,-2.1761 1.93736,-2.35731 -0.416,-2.35731 -4.53553,0 -29.02547,-12.93579 -35.04827,-18.51279 l -5.85098,-5.41789 -7.3102,6.68112 c -9.03711,8.2594 -12.8738,10.27985 -23.90247,12.58735 -4.77657,0.9994 -8.8978,2.0302 -9.15829,2.29069 -0.26048,0.26048 0.37302,2.85064 1.4078,5.75589 1.25932,3.53572 1.89029,11.23394 1.90828,23.2823 0.0239,15.93784 -0.33622,18.88296 -3.1424,25.70712 l -3.16928,7.7071 5.53425,2.80868 c 9.08988,4.61319 17.18333,10.50358 23.32185,16.97358 5.17446,5.45388 5.96026,5.86397 7.41747,3.8711 3.02857,-4.14182 14.72904,-13.06758 17.12984,-13.06758 2.22732,0 2.3602,1.90012 2.02444,28.95093 l -0.35933,28.95094 -4.02499,1.15351 c -3.46736,0.99371 -5.12984,0.42675 -12,-4.09241 -4.38625,-2.88527 -11.14705,-6.98227 -15.02399,-9.10446 l -7.04897,-3.85852 -10.17551,5.33334 c -10.2721,5.38396 -13.88924,8.83774 -8.09589,7.73026 2.99353,-0.57224 15.0062,6.48922 28.34819,16.66407 l 5.31217,4.05116 5.35449,-3.32613 c 2.94498,-1.82939 8.56552,-4.79904 12.4901,-6.59924 z m -7.80227,-74.31305 c -2.56667,-2.91578 -7.22873,-6.43859 -10.36016,-7.8285 l -5.69349,-2.52709 0.36016,-27.44827 c 0.4343,-33.09866 0.43928,-33.10818 12.61889,-24.14206 4.4406,3.26898 9.949,6.72033 12.24088,7.66965 l 4.16705,1.72605 v 26.92463 26.92463 l -4.33333,2.00117 c -4.31147,1.99109 -4.35688,1.97444 -9,-3.30021 z M 336.00001,494.66665 c 11.58476,-5.8247 13.33333,-6.27738 13.33333,-3.45185 0,1.0348 1.84604,3.4348 4.10231,5.33333 5.75788,4.84494 14.08219,4.72148 23.12322,-0.34292 3.72596,-2.08712 8.35762,-4.18177 10.29258,-4.65478 1.93496,-0.473 5.38496,-2.98623 7.66667,-5.58495 l 4.14856,-4.72495 v -39.87492 c 0,-21.9312 0.45,-40.11045 1,-40.39833 0.55,-0.28789 8.43055,-0.0167 17.51232,0.60268 17.81769,1.21515 20.15435,0.63651 20.15435,-4.99096 0,-4.34688 -4.83908,-7.24568 -12.09551,-7.24568 -3.39285,0 -10.84391,-0.39518 -16.55791,-0.8782 l -10.38909,-0.8782 0.74703,-18.78846 c 0.46776,-11.76486 1.51277,-20.90682 2.79544,-24.45514 1.17606,-3.25342 1.4858,-5.66666 0.72732,-5.66666 -2.6137,0 -8.3577,4.66326 -12.08947,9.81484 -3.69488,5.10062 -3.80448,5.72633 -3.80448,21.71854 v 16.46662 h -7.30109 -7.3011 l -0.36557,-22.00272 c -0.49226,-29.62703 -2.91176,-29.98348 -3.39704,-0.50047 l -0.3648,22.16348 -6.25862,0.70543 c -8.40049,0.94686 -14.0214,6.84102 -13.4194,14.07177 0.38506,4.62481 0.66496,4.89584 5.05632,4.89584 3.75639,0 4.98603,-0.70382 6.40608,-3.66667 1.20844,-2.52131 2.7759,-3.66667 5.01798,-3.66667 h 3.26057 v 39.33334 c 0,34.07408 0.26741,39.33333 2,39.33333 1.73259,0 2,-5.25925 2,-39.33333 v -39.33334 l 5.66667,0.0204 c 3.11667,0.0107 6.45008,0.5173 7.40759,1.12459 1.38408,0.87784 1.65737,9.27757 1.33333,40.97957 -0.35301,34.53676 -0.71156,40.43044 -2.67804,44.02096 -2.85276,5.20872 -8.19307,7.46739 -16.39804,6.93548 -6.68838,-0.43357 -7.88776,-1.48286 -9.28888,-8.12636 -1.69538,-8.03876 -10.60102,-7.32238 -21.90542,1.76207 -6.16873,4.95733 -14.21148,14.61663 -12.17045,14.61663 0.78417,0 6.19913,-2.4 12.03324,-5.33334 z m -1.33333,-155.82237 c 4.65541,-3.14808 4.73581,-3.15366 33.33333,-2.31601 34.72436,1.01712 85.69854,-1.093 95.75487,-3.96387 4.284,-1.22298 9.03139,-3.84626 12,-6.63088 l 4.9118,-4.60734 -6.61019,2.85509 c -6.55428,2.83095 -6.92073,2.84108 -43.32858,1.19679 -37.75159,-1.70498 -80.25486,-0.98346 -90.03831,1.52844 -10.63891,2.73153 -19.32836,15.14169 -19.34882,27.6337 -0.007,4.3402 0.18346,4.164 4.3259,-4 2.73274,-5.38576 6.05704,-9.70581 9,-11.69592 z m 184.33334,602.22399 c -4.84422,-1.90914 -7,-3.50078 -7,-5.16816 0,-1.32519 0.52498,-2.73388 1.16664,-3.13044 1.70612,-1.05444 16.85704,5.39445 16.70002,7.10826 -0.46301,5.05395 -0.93269,5.10539 -10.86666,1.19034 z m -34.69155,-15.78866 c -6.18304,-3.54589 -6.85672,-4.34286 -5.62164,-6.65061 1.36395,-2.54856 1.62909,-2.50795 9.47155,1.45091 5.85101,2.95358 7.85394,4.63148 7.2883,6.10552 -0.429,1.11796 -0.78,2.28357 -0.78,2.59026 0,1.49884 -4.0063,0.14664 -10.35821,-3.49608 z m -129.74271,-0.9463 -3.23242,-3.66667 3.66667,3.23241 c 3.42705,3.02119 4.27812,4.10092 3.23241,4.10092 -0.23882,0 -1.88882,-1.65 -3.66666,-3.66666 z m 369.43426,0.58278 c 0,-0.22946 1.95,-2.17946 4.33334,-4.33333 l 4.33333,-3.91612 -3.91612,4.33333 c -3.65037,4.03928 -4.75055,4.9462 -4.75055,3.91612 z M 452.83237,907.15177 c -5.20833,-3.25782 -7.42512,-5.42122 -6.9156,-6.74901 0.41246,-1.07483 0.74991,-2.20515 0.74991,-2.51184 0,-1.55096 3.42381,-0.0821 10.02476,4.30065 6.25511,4.15316 7.08095,5.1691 5.69012,7 -0.89484,1.17795 -1.68473,2.27972 -1.75533,2.44836 -0.0705,0.16866 -3.57784,-1.85102 -7.79386,-4.48816 z m -115.66911,-0.1518 c -1.65849,-2.11474 -1.61133,-2.1619 0.50342,-0.50341 1.28333,1.00647 2.33333,2.05647 2.33333,2.33333 0,1.09739 -1.09492,0.39108 -2.83675,-1.82992 z m 84.35393,-21.77238 c -5.85178,-4.65926 -6.63336,-5.80866 -5.45152,-8.01696 1.60489,-2.99876 3.1467,-2.3828 11.02412,4.40414 3.66628,3.15878 4.83832,5.03778 4.19068,6.71854 -1.26344,3.2789 -2.0646,3.02406 -9.76328,-3.10572 z m -28.63464,-25.00846 c -5.56039,-5.64528 -6.09392,-6.66052 -4.2879,-8.15938 2.0586,-1.70848 2.78931,-1.2383 14.61552,9.40478 1.18782,1.06899 -1.26737,5.20211 -3.09021,5.20211 -0.48777,0 -3.74461,-2.90137 -7.23741,-6.44751 z m -23.67151,-23.88582 c -8.08939,-9.02133 -8.35106,-9.48973 -6.52827,-11.68607 2.17557,-2.6214 2.27317,-2.5682 9.20113,5.01566 4.81507,5.27093 5.50403,6.66473 4.11922,8.33333 -2.2744,2.74048 -3.00368,2.56193 -6.79208,-1.66292 z m -22.63958,-27.47308 c -9.09718,-12.41895 -8.63412,-11.36907 -6.12217,-13.88036 1.50275,-1.50236 2.64745,-1.82339 3.2656,-0.91583 0.52348,0.76856 2.90179,4.17667 5.28512,7.57356 5.04723,7.19366 5.05301,7.21927 2,8.84239 -1.75831,0.9348 -2.84968,0.53563 -4.42855,-1.61976 z M 322.1001,773.14418 c -3.77202,-6.33212 -4.50424,-8.48892 -3.16936,-9.33562 0.95476,-0.6056 2.33594,-1.09325 3.06927,-1.08369 1.30579,0.0171 10.72493,14.50056 9.80216,15.07245 -0.25785,0.15982 -1.44261,1.031 -2.6328,1.93599 -1.87056,1.42231 -2.82911,0.52885 -7.06927,-6.58913 z m -18.80481,-33.22382 c -3.27095,-6.84362 -3.56341,-8.26827 -1.91183,-9.31291 2.93374,-1.85559 2.95758,-1.83404 7.69383,6.95494 3.43304,6.37064 4.02408,8.42983 2.66667,9.29072 -3.35132,2.12544 -4.61478,1.08869 -8.44867,-6.93275 z m -15.97876,-32.75295 c -3.92875,-8.88359 -3.97223,-9.29718 -1.09356,-10.40182 2.83607,-1.0883 3.51869,-0.29486 7.18849,8.35539 2.53594,5.97753 2.71868,7.31239 1.13812,8.31292 -3.18574,2.01663 -3.80845,1.47713 -7.23305,-6.26649 z m -12.23595,-29.50076 c -0.45965,-1.28334 -1.91124,-5.1305 -3.22574,-8.54924 -2.11583,-5.50282 -2.1556,-6.30587 -0.34671,-7 1.12383,-0.43126 2.52108,-0.7841 3.10503,-0.7841 1.59173,0 7.11784,15.61123 6.10577,17.24879 -1.36624,2.21063 -4.71332,1.66719 -5.63835,-0.91545 z M 262.7233,642.14891 c -3.81916,-10.04513 -4.54795,-14.35448 -2.63241,-15.5654 3.12493,-1.97542 4.12012,-0.86942 6.72371,7.47232 3.07414,9.84946 3.08192,9.48586 -0.22111,10.34962 -1.98699,0.51961 -3.05044,-0.1004 -3.87019,-2.25654 z m -10.07869,-34.58575 c -0.28908,-0.85975 -1.38538,-4.9747 -2.4362,-9.14434 -1.93647,-7.68385 -1.46256,-9.0855 3.07188,-9.0855 0.82274,0 5.38638,15.0686 5.38638,17.78517 0,1.42453 -5.55468,1.83468 -6.02206,0.44467 z m 582.66008,-77.22984 c 1.29703,-10.22166 1.91104,-11.66667 4.9574,-11.66667 2.5822,0 2.69214,0.50296 1.81148,8.28699 -1.10594,9.77522 -1.39385,10.37968 -4.94401,10.37968 -2.49685,0 -2.64231,-0.55795 -1.82487,-7 z m 5.18078,-36.51943 c 0.46633,-3.40236 0.84789,-7.60236 0.84789,-9.33333 0,-2.51144 0.71,-3.14724 3.51456,-3.14724 3.41403,0 3.49032,0.17697 2.66667,6.18609 -0.46634,3.40236 -0.8479,7.60236 -0.8479,9.33334 0,2.51144 -0.71,3.14724 -3.51456,3.14724 -3.41402,0 -3.49032,-0.17698 -2.66666,-6.1861 z m 3.51456,-34.29448 c 0,-1.73097 0.38156,-5.93097 0.84789,-9.33333 0.74859,-5.46155 1.2338,-6.18609 4.14265,-6.18609 2.4566,0 3.08887,0.53652 2.48544,2.10905 -0.44513,1.15997 -0.80932,5.35997 -0.80932,9.33333 0,6.81702 -0.18792,7.22428 -3.33333,7.22428 -2.61411,0 -3.33333,-0.67906 -3.33333,-3.14724 z m 2.66666,-41.41037 c 0,-8.94039 0.90584,-11.44239 4.14266,-11.44239 2.23608,0 2.52401,1.06472 2.52401,9.33334 0,9.06666 -0.0952,9.33333 -3.33333,9.33333 -3.14542,0 -3.33334,-0.40727 -3.33334,-7.22428 z m -694.56142,3.77984 c 0.064,-1.55327 0.37992,-1.8692 0.80555,-0.80556 0.38516,0.96249 0.3378,2.11251 -0.1052,2.55556 -0.44307,0.44305 -0.75819,-0.34445 -0.7003,-1.75 z m -1.33333,-18.66667 c 0.064,-1.55326 0.37992,-1.8692 0.80554,-0.80556 0.38516,0.9625 0.3378,2.11251 -0.1052,2.55556 -0.44306,0.44306 -0.75818,-0.34445 -0.70029,-1.75 z m 772.00002,-6.66666 c 0.064,-1.55327 0.37992,-1.8692 0.80555,-0.80556 0.38516,0.96249 0.3378,2.1125 -0.1052,2.55556 -0.44305,0.44305 -0.75819,-0.34446 -0.70029,-1.75 z m -74.77193,-17.88889 c 0,-9.06667 0.0952,-9.33334 3.33333,-9.33334 3.23809,0 3.33333,0.26667 3.33333,9.33334 0,9.06666 -0.0952,9.33333 -3.33333,9.33333 -3.23809,0 -3.33333,-0.26667 -3.33333,-9.33333 z m -698.45617,1.33333 c 0,-1.83333 0.30264,-2.58333 0.67252,-1.66667 0.36988,0.91667 0.36988,2.41667 0,3.33334 -0.36988,0.91666 -0.67252,0.16666 -0.67252,-1.66667 z m 774.7161,-11.33333 c 0.0272,-2.2 0.326,-2.93859 0.66406,-1.6413 0.33805,1.2973 0.31582,3.0973 -0.0495,4 -0.36524,0.90271 -0.64183,-0.1587 -0.61465,-2.3587 z m -75.37104,-18.8889 c -0.48889,-0.48888 -0.88889,-4.68888 -0.88889,-9.33333 0,-8.11852 0.12865,-8.44444 3.33333,-8.44444 3.23809,0 3.33333,0.26667 3.33333,9.33333 0,8.16162 -0.30688,9.33334 -2.44444,9.33334 -1.34445,0 -2.84445,-0.4 -3.33333,-0.8889 z M 148.47328,333.99999 c -0.004,-6.6 0.2214,-9.46811 0.50103,-6.37356 0.27963,3.09453 0.28296,8.49453 0.008,12 -0.27556,3.50545 -0.50436,0.97356 -0.50841,-5.62644 z m 0,-26.66667 c -0.004,-6.6 0.2214,-9.4681 0.50103,-6.37356 0.27963,3.09454 0.28296,8.49454 0.008,12 -0.27617,3.50546 -0.50497,0.97356 -0.50903,-5.62644 z m 699.52675,1.30475 c 0,-2.29215 -1.06067,-3.84519 -3.33334,-4.88068 -3.6365,-1.65691 -3.8663,-2.18499 -2.13801,-4.91309 1.89179,-2.98615 10.79937,0.51922 10.82288,4.25909 0.0107,1.59313 0.38,4.2466 0.82219,5.8966 0.6838,2.5516 0.2825,3 -2.68488,3 -2.84046,0 -3.48884,-0.6248 -3.48884,-3.36192 z m -33.66667,-19.39025 c -7.90081,-4.0781 -8.40937,-4.67863 -6.50541,-7.68172 0.88938,-1.40283 2.96238,-0.93204 10.05334,2.28316 8.15975,3.69981 8.80708,4.28553 7.47892,6.76722 -1.81972,3.40018 -1.77772,3.40539 -11.02685,-1.36866 z m -35.33334,-16.92141 c -6.89478,-3.49134 -7.91417,-4.83128 -5.97958,-7.86002 1.59474,-2.49668 17.97849,5.49038 17.40208,8.48348 -0.67195,3.48912 -3.61844,3.3283 -11.4225,-0.62346 z M 149.4386,263.22222 c 0.064,-1.55327 0.37992,-1.8692 0.80555,-0.80556 0.38516,0.96249 0.3378,2.11249 -0.1052,2.55556 -0.44307,0.44305 -0.75819,-0.34445 -0.70029,-1.75 z m 595.56142,-7.30773 c -7.11502,-3.67251 -9.39746,-6.68743 -6.44438,-8.51252 1.45728,-0.90066 17.44438,5.81694 17.44438,7.32993 0,1.90204 -1.60212,5.26933 -2.47598,5.20396 -0.47154,-0.0352 -4.30735,-1.84489 -8.52402,-4.02137 z m -35,-16.80583 c -8.24497,-4.24677 -7.73965,-3.728 -6.73004,-6.909 0.83198,-2.62129 0.97986,-2.60952 8.45508,0.67287 9.13974,4.01329 9.9438,4.70173 8.84268,7.57117 -1.12801,2.93959 -2.63937,2.74865 -10.56772,-1.33504 z m -35.03167,-16.87521 c -7.5126,-3.86526 -8.18916,-4.54431 -6.63928,-6.6639 1.63182,-2.23164 2.15963,-2.16858 9.69835,1.1585 9.60179,4.23758 9.08315,3.77292 8.00449,7.17146 -1.10566,3.48367 -1.03324,3.49458 -11.06356,-1.66606 z M 639.63877,205.2337 c -6.75512,-3.48648 -7.52766,-4.28327 -6.32736,-6.52603 1.32668,-2.47894 1.59434,-2.45274 9.02792,0.88328 9.35625,4.1989 9.97014,4.71784 8.89508,7.51942 -1.15022,2.99742 -2.60962,2.76124 -11.59564,-1.87667 z m -33.97208,-16.30301 c -8.826,-4.41322 -8.95587,-4.5496 -7.10932,-7.46612 0.97865,-1.54575 2.70364,-1.20639 9.97957,1.96336 4.83803,2.10766 8.79641,4.18393 8.79641,4.61392 0,0.42998 -0.75,1.74342 -1.66666,2.91876 -1.50222,1.9261 -2.48891,1.72581 -10,-2.02992 z m -35.36126,-17.03032 c -6.85051,-3.53571 -7.53996,-4.26027 -6.28509,-6.60501 1.40081,-2.61744 1.44233,-2.61692 6.74001,0.0857 2.93177,1.49568 6.83421,3.29112 8.67208,3.98988 2.84069,1.08004 3.12664,1.67205 1.90767,3.94973 -1.79795,3.35949 -1.76554,3.36367 -11.03467,-1.42036 z" id="path9552"></path>
      <path style="fill:#e8cc89;stroke-width:1.33333" d="m 532.00002,1032.427 c -25.07496,-8.7232 -64.21086,-26.8708 -87.49657,-40.57286 C 269.90816,889.11703 168.40766,681.23123 150.64742,389.99999 c -1.4901,-24.43461 -1.61604,-113.87036 -0.18738,-133.06876 l 0.8733,-11.73544 188,-88.68878 C 442.73335,107.72817 529.55612,66.904865 532.27284,65.788543 l 4.93951,-2.029676 193.38255,91.787233 193.38256,91.78723 0.84649,4.44073 c 1.29292,6.78276 -0.38916,132.87272 -2.07521,155.55926 -7.11487,95.73357 -20.46981,172.79304 -42.7495,246.66927 -49.12429,162.88905 -142.00631,286.14049 -263.42423,349.55551 -36.01394,18.8095 -75.12013,32.1581 -84.57499,28.8689 z m 16.85954,-52.52606 c 40.92761,-12.3838 84.00294,-35.02309 120.81446,-63.49697 27.27676,-21.0987 56.66004,-50.67869 79.44862,-79.9805 65.07109,-83.66911 108.76284,-196.49229 127.44299,-329.09015 8.56288,-60.7822 10.62306,-93.08093 10.70186,-167.77913 l 0.0659,-62.4458 -175.91786,-82.62217 -175.91784,-82.62216 -174.95906,81.59485 -174.95907,81.59486 -0.95402,16.54031 c -1.5084,26.1523 0.15062,117.93007 2.61036,144.40591 11.53734,124.18394 38.25242,224.87812 82.59958,311.33332 59.38455,115.77076 144.02691,191.83397 260.83123,234.39406 3.92028,1.42844 9.18134,0.90027 18.19288,-1.82643 z m -180.86151,-241.90292 -19.30079,-19.33529 8.32188,-8.32188 8.32188,-8.32188 19.63905,19.63902 19.63904,19.63904 -7.93448,8.01815 c -4.36396,4.40997 -8.26102,8.01813 -8.66012,8.01813 -0.39911,0 -9.41102,-8.70088 -20.02646,-19.33529 z m 21.64056,-21.86279 -18.91628,-19.86474 9.2756,-8.75012 c 7.33895,-6.9232 9.81996,-10.29898 11.88287,-16.16831 6.9286,-19.71309 24.23867,-32.67489 49.68048,-37.20079 7.52659,-1.33892 17.01744,-4.58194 29.45104,-10.06342 10.0901,-4.44833 18.68434,-8.08787 19.0983,-8.08787 0.41397,0 -3.75635,8.56836 -9.26739,19.04081 -8.91996,16.95034 -10.16936,20.23154 -11.37998,29.88631 -1.69392,13.50931 -5.33414,24.052 -11.05188,32.00804 -5.06453,7.04715 -15.0827,14.42368 -22.19458,16.3422 -3.38639,0.91352 -8.1438,4.59835 -15.51883,12.02001 -5.84947,5.88644 -10.97461,10.70263 -11.38923,10.70263 -0.4146,0 -9.26616,-8.93913 -19.67012,-19.86475 z m 29.01567,1.87726 c 6.74799,-6.80851 10.04856,-9.08188 15.47627,-10.65976 16.96142,-4.93082 29.86946,-26.0578 29.86946,-48.88827 0,-3.32685 1.48442,-7.80179 4.16154,-12.54537 2.28884,-4.0556 3.91978,-7.61558 3.62432,-7.91104 -0.29547,-0.29547 -6.86699,6.18185 -14.60338,14.39402 -13.40324,14.22756 -14.03888,15.16328 -13.48736,19.85488 1.17491,9.9945 -10.60972,15.61631 -17.75572,8.4703 -6.8251,-6.8251 -1.91662,-18.0606 7.89016,-18.0606 4.11135,0 6.15315,-1.56956 18.62912,-14.32038 7.70643,-7.8762 13.80572,-14.52633 13.55399,-14.77806 -0.25175,-0.25175 -3.35757,0.84796 -6.90185,2.44378 -3.54428,1.59582 -10.3941,3.41694 -15.2218,4.04692 -23.3473,3.04671 -39.5292,15.04342 -46.65591,34.5891 -2.15136,5.90029 -4.74068,9.68813 -10.06483,14.72348 -3.94254,3.7287 -7.16828,7.13516 -7.16828,7.5699 0,1.03464 28.27536,29.72526 29.29504,29.72526 0.4301,0 4.64175,-3.89438 9.35923,-8.65416 z m 19.74573,-39.61251 c 4.94819,-4.94819 -1.56193,-15.03617 -7.61336,-11.79753 -4.59652,2.45997 -5.96672,6.41537 -3.51733,10.15361 2.32303,3.54539 8.34049,4.43412 11.13069,1.64392 z m 159.25252,-249.15878 0.34749,-57.42545 44.38223,-17.99972 44.38221,-17.99973 41.92108,17.75852 41.9211,17.7585 0.03,57.66667 0.03,57.66666 h -86.68083 -86.68084 z m 167.36477,3.75879 c 0.25751,-34.03022 -0.0535,-46.33333 -1.17118,-46.33333 -0.837,0 -18.52004,10.83333 -39.29567,24.07407 l -37.77387,24.0741 -41.05495,-24.92095 c -22.58022,-13.70652 -41.50494,-25.17526 -42.05494,-25.4861 -0.55,-0.31084 -1,21.07489 -1,47.52385 v 48.08901 l 81,-0.34365 81,-0.34367 z m -60.92265,-16.44774 c 16.63873,-10.54112 18.35308,-12.49677 20.36253,-23.22871 2.63574,-14.07686 -9.28704,-25.0494 -23.15968,-21.3139 -5.05653,1.36159 -8.59694,4.90683 -14.02773,14.04686 -1.2214,2.05562 -1.94088,1.50332 -5.72635,-4.39582 -5.38904,-8.39809 -11.38607,-11.5929 -19.26311,-10.26208 -6.9003,1.1658 -14.19273,7.95135 -14.47412,13.46806 -0.85429,16.74889 0.94262,19.53115 20.36214,31.52793 9.0741,5.60569 17.27748,10.21014 18.22974,10.23212 0.95227,0.022 8.91573,-4.51154 17.69658,-10.07446 z m -61.18246,-24.88559 c -0.41173,-8.41471 -0.0656,-10.26695 2.67248,-14.3016 5.0158,-7.39094 10.99655,-10.6984 19.3454,-10.6984 8.14956,0 13.53866,2.29932 17.65538,7.53289 l 2.82088,3.58616 4.29684,-4.0662 c 6.14711,-5.81715 9.18615,-7.05285 17.34536,-7.05285 8.36703,0 14.33213,3.29265 19.38164,10.6984 2.7804,4.07778 3.08995,5.77844 2.57517,14.14789 l -0.58509,9.51296 16.78988,-10.64583 c 22.57427,-14.31346 22.03372,-13.65445 14.02305,-17.09642 -3.61157,-1.5518 -21.42277,-9.14038 -39.58045,-16.86351 L 686.63877,342.3781 645.8769,358.92007 c -22.41903,9.09808 -40.80189,17.11108 -40.85084,17.80667 -0.0489,0.69558 8.55019,6.49542 19.10916,12.88853 10.55897,6.39311 19.20979,11.64504 19.22404,11.67094 0.0143,0.0259 -0.18693,-4.30289 -0.44707,-9.61955 z" id="path9550"></path>
      <path style="fill:#0c4578;stroke-width:1.33333" d="M 530.66668,981.72737 C 384.46727,928.45657 286.30938,820.60039 229.98126,651.33331 208.17237,585.79716 194.97727,519.32581 187.23587,435.99999 184.77613,409.52415 183.11711,317.74638 184.62551,291.59408 l 0.95402,-16.54031 174.95907,-81.59486 174.95906,-81.59485 175.91784,82.62216 175.91786,82.62217 -0.0659,62.4458 c -0.0788,74.6982 -2.13898,106.99693 -10.70186,167.77913 -18.68015,132.59786 -62.3719,245.42104 -127.44299,329.09015 -54.36468,69.90272 -125.47237,120.84745 -200.26308,143.47747 -9.01154,2.7267 -14.2726,3.25487 -18.19288,1.82643 z M 554.25591,944.562 c 54.84783,-16.62183 101.18288,-45.12935 143.16861,-88.08409 50.39152,-51.55457 88.63776,-117.78164 115.99839,-200.86244 6.99222,-21.23194 17.40624,-61.66865 19.98898,-77.61549 0.8314,-5.13333 2.01118,-12.02429 2.62172,-15.31325 0.78143,-4.20944 0.64472,-6.27588 -0.46174,-6.97959 -3.2876,-2.09086 -4.65356,-0.83866 -5.77372,5.29284 l -1.15703,6.33334 -146.32055,0.3392 -146.32055,0.33921 V 362.89475 c 0,-112.81433 0.37606,-205.49305 0.8357,-205.95269 0.45966,-0.45964 2.48358,0.0164 4.49763,1.05794 4.02501,2.08141 5.33333,1.51926 5.33333,-2.29159 0,-2.31213 -6.9199,-6.129 -9.66666,-5.33193 -0.55,0.1596 -1,-1.51032 -1,-3.71095 v -4.00112 l -156.00001,78.00225 c -150.4322,75.21828 -155.99971,78.13308 -155.9918,81.6678 0.004,2.01604 -0.67323,17.28574 -1.5061,33.93269 -2.86869,57.33829 2.87071,133.70838 15.61164,207.73283 4.1703,24.2293 5.33603,28 8.65632,28 1.4098,0 2.56327,-0.9 2.56327,-2 0,-1.76537 16.81482,-2 143.33334,-2 h 143.33334 v 190.66666 c 0,118.38401 0.47612,190.66667 1.25589,190.66667 0.69073,0 8.34073,-2.1471 17,-4.77131 z m 90.38962,-154.16769 c -13.34199,-10.17485 -25.35466,-17.23631 -28.34819,-16.66407 -5.79335,1.10748 -2.17621,-2.3463 8.09589,-7.73026 l 10.17551,-5.33334 7.04897,3.85852 c 3.87694,2.12219 10.63774,6.21919 15.02399,9.10446 6.87016,4.51916 8.53264,5.08612 12,4.09241 l 4.02499,-1.15351 0.35933,-28.95094 c 0.33576,-27.05081 0.20288,-28.95093 -2.02444,-28.95093 -2.4008,0 -14.10127,8.92576 -17.12984,13.06758 -1.45721,1.99287 -2.24301,1.58278 -7.41747,-3.8711 -6.13852,-6.47 -14.23197,-12.36039 -23.32185,-16.97358 l -5.53425,-2.80868 3.16928,-7.7071 c 2.80618,-6.82416 3.1662,-9.76928 3.1424,-25.70712 -0.018,-12.04836 -0.64896,-19.74658 -1.90828,-23.2823 -1.03478,-2.90525 -1.66828,-5.49541 -1.4078,-5.75589 0.26049,-0.26049 4.38172,-1.29129 9.15829,-2.29069 11.02867,-2.3075 14.86536,-4.32795 23.90247,-12.58735 l 7.3102,-6.68112 5.85098,5.41789 c 6.0228,5.577 30.51274,18.51279 35.04827,18.51279 2.35336,0 2.38535,0.18121 0.416,2.35731 -1.17333,1.29652 -3.35314,5.04652 -4.84402,8.33333 -2.5711,5.66825 -2.71058,8.55107 -2.70834,55.97603 0.003,49.56703 0.0297,50.06662 3.16646,57.69433 l 3.16408,7.69434 -6.3525,-0.84269 c -10.59079,-1.40492 -24.95175,2.93569 -39.39347,11.90671 l -5.35449,3.32613 z m 28.68782,-105.81285 v -26.92463 l -4.16705,-1.72605 c -2.29188,-0.94932 -7.80028,-4.40067 -12.24088,-7.66965 -12.17961,-8.96612 -12.18459,-8.9566 -12.61889,24.14206 l -0.36016,27.44827 5.69349,2.52709 c 3.13143,1.38991 7.79349,4.91272 10.36016,7.8285 4.64312,5.27465 4.68853,5.2913 9,3.30021 l 4.33333,-2.00117 z M 326.72757,494.79037 c 5.37296,-6.68592 13.316,-13.05422 19.51047,-15.64244 6.13784,-2.56454 10.6836,-0.84192 11.8046,4.47338 1.40112,6.64349 2.6005,7.69278 9.28888,8.12636 8.20497,0.5319 13.54528,-1.72676 16.39804,-6.93548 1.96648,-3.59052 2.32503,-9.4842 2.67804,-44.02096 0.32404,-31.702 0.0508,-40.10174 -1.33333,-40.97958 -0.95751,-0.60729 -4.29092,-1.11336 -7.40759,-1.12458 l -5.66667,-0.0204 v 39.33334 c 0,34.07408 -0.26741,39.33333 -2,39.33333 -1.73259,0 -2,-5.25925 -2,-39.33333 v -39.33334 h -3.26057 c -2.24208,0 -3.80954,1.14536 -5.01798,3.66667 -1.42005,2.96285 -2.64969,3.66667 -6.40608,3.66667 -4.39136,0 -4.67126,-0.27103 -5.05632,-4.89584 -0.602,-7.23075 5.01891,-13.12491 13.4194,-14.07177 l 6.25862,-0.70543 0.3648,-22.16348 c 0.48528,-29.48301 2.90478,-29.12656 3.39704,0.50047 l 0.36557,22.00272 h 7.3011 7.30109 v -16.46662 c 0,-15.99221 0.1096,-16.61792 3.80448,-21.71854 3.73177,-5.15158 9.47577,-9.81484 12.08947,-9.81484 0.75848,0 0.44874,2.41324 -0.72732,5.66666 -1.28267,3.54832 -2.32768,12.69028 -2.79544,24.45514 l -0.74703,18.78846 10.38909,0.8782 c 5.714,0.48302 13.16506,0.8782 16.55791,0.8782 7.25643,0 12.09551,2.8988 12.09551,7.24568 0,5.62747 -2.33666,6.20611 -20.15435,4.99096 -9.08177,-0.61936 -16.96232,-0.89057 -17.51232,-0.60268 -0.55,0.28788 -1,18.46713 -1,40.39833 v 39.87492 l -4.14856,4.72495 c -2.28171,2.59872 -5.73171,5.11195 -7.66667,5.58495 -1.93496,0.47301 -6.56662,2.56766 -10.29258,4.65478 -9.04103,5.0644 -17.36534,5.18786 -23.12322,0.34292 -2.25627,-1.89853 -4.10231,-4.29853 -4.10231,-5.33333 0,-2.82553 -1.74857,-2.37285 -13.33333,3.45185 -5.83411,2.93334 -11.24907,5.33334 -12.03324,5.33334 -0.78416,0 0.4582,-2.34432 2.7608,-5.20962 z M 321.34078,354.5402 c 0.0204,-12.49201 8.70991,-24.90217 19.34882,-27.6337 9.78345,-2.5119 52.28672,-3.23342 90.03831,-1.52844 36.40785,1.64429 36.7743,1.63416 43.32858,-1.19679 l 6.61019,-2.85509 -4.9118,4.60734 c -2.96861,2.78462 -7.716,5.4079 -12,6.63088 -10.05633,2.87087 -61.03051,4.98099 -95.75487,3.96387 -28.59752,-0.83765 -28.67792,-0.83207 -33.33333,2.31601 -2.94296,1.99011 -6.26726,6.31016 -9,11.69592 -4.14244,8.164 -4.333,8.3402 -4.3259,4 z m 208.19257,588.12644 c 0.11,-0.73333 0.26,-1.98825 0.33333,-2.78871 0.15702,-1.71381 -14.9939,-8.1627 -16.70002,-7.10826 -0.64166,0.39656 -1.16664,1.80525 -1.16664,3.13044 0,1.66738 2.15578,3.25902 7,5.16816 7.987,3.14773 10.24942,3.49105 10.53333,1.59837 z m -34.86667,-13.89095 c 0,-0.30669 0.351,-1.4723 0.78,-2.59026 0.56564,-1.47404 -1.43729,-3.15194 -7.2883,-6.10552 -7.84246,-3.95886 -8.1076,-3.99947 -9.47155,-1.45091 -1.23508,2.30775 -0.5614,3.10472 5.62164,6.65061 6.35191,3.64272 10.35821,4.99492 10.35821,3.49608 z m -32.28512,-19.58412 c 1.39083,-1.8309 0.56499,-2.84684 -5.69012,-7 -6.60095,-4.38278 -10.02476,-5.85161 -10.02476,-4.30065 0,0.30669 -0.33745,1.43701 -0.74991,2.51184 -0.50952,1.32779 1.70727,3.49119 6.9156,6.74901 4.21602,2.63714 7.72326,4.65682 7.79386,4.48816 0.0707,-0.16864 0.86049,-1.27041 1.75533,-2.44836 z m -31.10109,-20.85826 c 0.64764,-1.68076 -0.5244,-3.55976 -4.19068,-6.71854 -7.87742,-6.78694 -9.41923,-7.4029 -11.02412,-4.40414 -1.18184,2.2083 -0.40026,3.3577 5.45152,8.01696 7.69868,6.12978 8.49984,6.38462 9.76328,3.10572 z m -28.5669,-23.72318 c 1.0047,-1.21057 1.20896,-2.5045 0.4966,-3.1456 -11.82621,-10.64308 -12.55692,-11.11326 -14.61552,-9.40478 -1.80602,1.49886 -1.27249,2.5141 4.2879,8.15938 3.4928,3.54614 6.74964,6.44751 7.23741,6.44751 0.48777,0 1.65491,-0.92543 2.59361,-2.05651 z m -26.71045,-26.6139 c 1.38481,-1.6686 0.69585,-3.0624 -4.11922,-8.33333 -6.92796,-7.58386 -7.02556,-7.63706 -9.20113,-5.01566 -1.82279,2.19634 -1.56112,2.66474 6.52827,11.68607 3.7884,4.22485 4.51768,4.4034 6.79208,1.66292 z m -22.66978,-29.4696 c 0,-0.39207 -1.95,-3.49213 -4.33333,-6.88903 -2.38333,-3.39689 -4.76164,-6.805 -5.28512,-7.57356 -0.61815,-0.90756 -1.76285,-0.58653 -3.2656,0.91583 -2.51195,2.51129 -2.97501,1.46141 6.12217,13.88036 1.57887,2.15539 2.67024,2.55456 4.42855,1.61976 1.28333,-0.68228 2.33333,-1.56129 2.33333,-1.95336 z m -21.53117,-30.72931 c 0.92277,-0.57189 -8.49637,-15.05541 -9.80216,-15.07245 -0.73333,-0.009 -2.11451,0.47809 -3.06927,1.08369 -1.33488,0.8467 -0.60266,3.0035 3.16936,9.33562 4.24016,7.11798 5.19871,8.01144 7.06927,6.58913 1.19019,-0.90499 2.37495,-1.77617 2.6328,-1.93599 z m 64.88246,-28.48214 7.93448,-8.01815 -19.63904,-19.63904 -19.63905,-19.63902 -8.32188,8.32188 -8.32188,8.32188 19.30079,19.33529 c 10.61544,10.63441 19.62735,19.33529 20.02646,19.33529 0.3991,0 4.29616,-3.60816 8.66012,-8.01813 z m -84.94067,-2.46207 c 1.35741,-0.86089 0.76637,-2.92008 -2.66667,-9.29072 -4.73625,-8.78898 -4.76009,-8.81053 -7.69383,-6.95494 -1.65158,1.04464 -1.35912,2.46929 1.91183,9.31291 3.83389,8.02144 5.09735,9.05819 8.44867,6.93275 z m 108.954,-21.55576 c 7.37503,-7.42166 12.13244,-11.10649 15.51883,-12.02001 7.11188,-1.91852 17.13005,-9.29505 22.19458,-16.3422 5.71774,-7.95604 9.35796,-18.49873 11.05188,-32.00804 1.21062,-9.65477 2.46002,-12.93597 11.37998,-29.88631 5.51104,-10.47245 9.68136,-19.04081 9.26739,-19.04081 -0.41396,0 -9.0082,3.63954 -19.0983,8.08787 -12.4336,5.48148 -21.92445,8.7245 -29.45104,10.06342 -25.44181,4.5259 -42.75188,17.4877 -49.68048,37.20079 -2.06291,5.86933 -4.54392,9.24511 -11.88287,16.16831 l -9.2756,8.75012 18.91628,19.86474 c 10.40396,10.92562 19.25552,19.86475 19.67012,19.86475 0.41462,0 5.53976,-4.81619 11.38923,-10.70263 z m -26.44143,-13.09812 c -7.84109,-7.95706 -14.25652,-14.8231 -14.25652,-15.25784 0,-0.43474 3.22574,-3.8412 7.16828,-7.5699 5.32415,-5.03535 7.91347,-8.82319 10.06483,-14.72348 7.12671,-19.54568 23.30861,-31.54239 46.65591,-34.5891 4.8277,-0.62998 11.67752,-2.4511 15.2218,-4.04692 3.54428,-1.59582 6.6501,-2.69553 6.90185,-2.44378 0.25173,0.25173 -5.84756,6.90186 -13.55399,14.77806 -12.47597,12.75082 -14.51777,14.32038 -18.62912,14.32038 -5.99344,0 -11.16289,4.93965 -11.16289,10.66666 0,2.59783 1.20975,5.33096 3.27273,7.39394 7.146,7.14601 18.93063,1.5242 17.75572,-8.4703 -0.55152,-4.6916 0.0841,-5.62732 13.48736,-19.85488 7.73639,-8.21217 14.30791,-14.68949 14.60338,-14.39402 0.29546,0.29546 -1.33548,3.85544 -3.62432,7.91104 -2.67712,4.74358 -4.16154,9.21852 -4.16154,12.54537 0,22.83047 -12.90804,43.95745 -29.86946,48.88827 -5.42771,1.57788 -8.72828,3.85125 -15.47627,10.65976 -4.71748,4.75978 -8.92913,8.65416 -9.35923,8.65416 -0.4301,0 -7.19744,-6.51034 -15.03852,-14.46742 z m 33.01279,-35.44317 c -2.44939,-3.73824 -1.07919,-7.69364 3.51733,-10.15361 6.05143,-3.23864 12.56155,6.84934 7.61336,11.79753 -2.7902,2.7902 -8.80766,1.90147 -11.13069,-1.64392 z M 294.54958,713.4339 c 1.58056,-1.00053 1.39782,-2.33539 -1.13812,-8.31292 -3.6698,-8.65025 -4.35242,-9.44369 -7.18849,-8.35539 -2.87867,1.10464 -2.83519,1.51823 1.09356,10.40182 3.4246,7.74362 4.04731,8.28312 7.23305,6.26649 z m -13.83065,-34.8518 c 1.01207,-1.63756 -4.51404,-17.24879 -6.10577,-17.24879 -0.58395,0 -1.9812,0.35284 -3.10503,0.7841 -1.80889,0.69413 -1.76912,1.49718 0.34671,7 1.3145,3.41874 2.76609,7.2659 3.22574,8.54924 0.92503,2.58264 4.27211,3.12608 5.63835,0.91545 z M 269.3137,642.84447 c -0.0604,-2.59568 -5.16225,-16.7906 -6.14615,-17.1003 -0.64214,-0.20212 -2.02665,0.17558 -3.07666,0.83934 -1.61299,1.01967 -1.64456,2.08988 -0.20352,6.89963 3.23796,10.80733 3.7786,11.68788 6.70612,10.92231 1.50692,-0.39407 2.73101,-1.09651 2.72021,-1.56098 z m -10.64703,-35.72598 c 0,-2.71657 -4.56364,-17.78517 -5.38638,-17.78517 -4.53444,0 -5.00835,1.40165 -3.07188,9.0855 2.73538,10.8539 2.69202,10.77806 5.71004,9.98883 1.51152,-0.39528 2.74822,-0.9754 2.74822,-1.28916 z m 581.82266,-70.83152 c 0.35567,-0.57549 1.06858,-4.77549 1.58424,-9.33333 0.88066,-7.78403 0.77072,-8.28699 -1.81148,-8.28699 -3.04636,0 -3.66037,1.44501 -4.9574,11.66667 -0.81744,6.44205 -0.67198,7 1.82487,7 1.4922,0 3.00409,-0.47086 3.35977,-1.04635 z m 6.17736,-39.43422 c 0,-1.73098 0.38156,-5.93098 0.8479,-9.33334 0.82365,-6.00912 0.74736,-6.18609 -2.66667,-6.18609 -2.80456,0 -3.51456,0.6358 -3.51456,3.14724 0,1.73097 -0.38156,5.93097 -0.84789,9.33333 -0.82366,6.00912 -0.74736,6.1861 2.66666,6.1861 2.80456,0 3.51456,-0.6358 3.51456,-3.14724 z m -76.03003,-67.85276 -0.03,-57.66667 -41.9211,-17.7585 -41.92108,-17.75852 -44.38221,17.99973 -44.38223,17.99972 -0.34749,57.42545 -0.34751,57.42545 h 86.68084 86.68083 z m -167.96997,2.93164 c 0,-26.44896 0.45,-47.83469 1,-47.52385 0.55,0.31084 19.47472,11.77958 42.05494,25.4861 l 41.05495,24.92095 37.77387,-24.0741 c 20.77563,-13.24074 38.45867,-24.07407 39.29567,-24.07407 1.1177,0 1.42869,12.30311 1.17118,46.33333 l -0.35061,46.33333 -81,0.34367 -81,0.34365 z m 65.50164,-15.53704 c -19.41952,-11.99678 -21.21643,-14.77904 -20.36214,-31.52793 0.28139,-5.51671 7.57382,-12.30226 14.47412,-13.46806 7.87704,-1.33082 13.87407,1.86399 19.26311,10.26208 3.78547,5.89914 4.50495,6.45144 5.72635,4.39582 5.43079,-9.14003 8.9712,-12.68527 14.02773,-14.04686 13.87264,-3.7355 25.79542,7.23704 23.15968,21.3139 -2.00945,10.73194 -3.7238,12.68759 -20.36253,23.22871 -8.78085,5.56292 -16.74431,10.09643 -17.69658,10.07446 -0.95226,-0.022 -9.15564,-4.62643 -18.22974,-10.23212 z m -44.03311,-26.77932 c -10.55897,-6.39311 -19.15809,-12.19295 -19.10916,-12.88853 0.0489,-0.69559 18.43181,-8.70859 40.85084,-17.80667 l 40.76187,-16.54197 33.01396,14.04205 c 18.15768,7.72313 35.96888,15.31171 39.58045,16.86351 8.01067,3.44197 8.55122,2.78296 -14.02305,17.09642 l -16.78988,10.64583 0.58509,-9.51296 c 0.51478,-8.36945 0.20523,-10.07011 -2.57517,-14.14789 -5.04951,-7.40575 -11.01461,-10.6984 -19.38164,-10.6984 -8.15921,0 -11.19825,1.2357 -17.34536,7.05285 l -4.29684,4.0662 -2.82088,-3.58616 c -4.11672,-5.23357 -9.50582,-7.53289 -17.65538,-7.53289 -8.34885,0 -14.3296,3.30746 -19.3454,10.6984 -2.73809,4.03465 -3.08421,5.88689 -2.67248,14.3016 0.26014,5.31666 0.46132,9.64546 0.44707,9.61955 -0.0143,-0.0259 -8.66507,-5.27783 -19.22404,-11.67094 z m 226.53147,65.8271 c 0,-3.97336 0.36419,-8.17336 0.80932,-9.33333 0.60343,-1.57253 -0.0288,-2.10905 -2.48544,-2.10905 -2.90885,0 -3.39406,0.72454 -4.14265,6.18609 -1.51024,11.01841 -1.21905,12.48057 2.48544,12.48057 3.14541,0 3.33333,-0.40726 3.33333,-7.22428 z m 2.66667,-39.44238 c 0,-8.26862 -0.28793,-9.33334 -2.52401,-9.33334 -3.23682,0 -4.14266,2.502 -4.14266,11.44239 0,6.81701 0.18792,7.22428 3.33334,7.22428 3.23809,0 3.33333,-0.26667 3.33333,-9.33333 z m 1.33333,-37.33333 c 0,-9.06667 -0.0952,-9.33334 -3.33333,-9.33334 -3.23809,0 -3.33333,0.26667 -3.33333,9.33334 0,9.06666 0.0952,9.33333 3.33333,9.33333 3.23809,0 3.33333,-0.26667 3.33333,-9.33333 z m 0,-37.33334 c 0,-9.06666 -0.0952,-9.33333 -3.33333,-9.33333 -3.20468,0 -3.33333,0.32592 -3.33333,8.44444 0,9.09479 0.46568,10.22223 4.22222,10.22223 2.13756,0 2.44444,-1.17172 2.44444,-9.33334 z m -0.49294,-32.33333 c -0.44219,-1.65 -0.81218,-4.30347 -0.82219,-5.8966 -0.0235,-3.73987 -8.93109,-7.24524 -10.82288,-4.25909 -1.72829,2.7281 -1.49849,3.25618 2.13801,4.91309 2.27267,1.03549 3.33334,2.58853 3.33334,4.88068 0,2.73712 0.64838,3.36192 3.48884,3.36192 2.96738,0 3.36868,-0.4484 2.68488,-3 z m -28.81354,-18.38351 c 1.32816,-2.48169 0.68083,-3.06741 -7.47892,-6.76722 -7.09096,-3.2152 -9.16396,-3.68599 -10.05334,-2.28316 -1.90396,3.00309 -1.3954,3.60362 6.50541,7.68172 9.24913,4.77405 9.20713,4.76884 11.02685,1.36866 z m -34.93769,-17.66661 c 0.57641,-2.9931 -15.80734,-10.98016 -17.40208,-8.48348 -1.93459,3.02874 -0.9152,4.36868 5.97958,7.86002 7.80406,3.95176 10.75055,4.11258 11.4225,0.62346 z M 755.1907,257.89094 c 0.44514,-1.15997 0.80932,-2.58155 0.80932,-3.15904 0,-1.51299 -15.9871,-8.23059 -17.44438,-7.32993 -2.95308,1.82509 -0.67064,4.84001 6.44438,8.51252 9.05598,4.67434 9.14852,4.69229 10.19068,1.97645 z M 720.56774,240.4437 c 1.10112,-2.86944 0.29706,-3.55788 -8.84268,-7.57117 -7.47522,-3.28239 -7.6231,-3.29416 -8.45508,-0.67287 -1.00961,3.181 -1.51493,2.66223 6.73004,6.909 7.92835,4.08369 9.43971,4.27463 10.56772,1.33504 z m -34.53583,-16.54419 c 1.07866,-3.39854 1.5973,-2.93388 -8.00449,-7.17146 -7.53872,-3.32708 -8.06653,-3.39014 -9.69835,-1.1585 -1.54988,2.11959 -0.87332,2.79864 6.63928,6.6639 10.03032,5.16064 9.9579,5.14973 11.06356,1.66606 z m -34.7975,-16.78914 c 1.07506,-2.80158 0.46117,-3.32052 -8.89508,-7.51942 -7.43358,-3.33602 -7.70124,-3.36222 -9.02792,-0.88328 -1.2003,2.24276 -0.42776,3.03955 6.32736,6.52603 8.98602,4.63791 10.44542,4.87409 11.59564,1.87667 z m -33.90106,-19.06852 c 0,-0.42999 -3.95838,-2.50626 -8.79641,-4.61392 -7.27593,-3.16975 -9.00092,-3.50911 -9.97957,-1.96336 -1.84655,2.91652 -1.71668,3.0529 7.10932,7.46612 7.51109,3.75573 8.49778,3.95602 10,2.02992 0.91666,-1.17534 1.66666,-2.48878 1.66666,-2.91876 z M 581.3401,173.32073 c 1.21897,-2.27768 0.93302,-2.8697 -1.90767,-3.94973 -1.83787,-0.69876 -5.74031,-2.4942 -8.67208,-3.98988 -5.29768,-2.70268 -5.3392,-2.7032 -6.74001,-0.0857 -1.25487,2.34475 -0.56542,3.06931 6.28509,6.60501 9.26913,4.78403 9.23672,4.77986 11.03467,1.42036 z" id="path9548"></path>
    </g>
  </g>
</svg>
