


<svg version="1.1" id="svg141" width="6753.8027" height="7676.6196" viewBox="0 0 6753.8027 7676.6196" xmlns="http://www.w3.org/2000/svg">
  <defs id="defs145"></defs>
  <g id="g147">
    <path style="fill:#fdf36f;stroke:none;stroke-width:3.38028" d="m 2112.676,4414.6478 c -0.1081,160.6986 -9.7386,322.8507 -16.7696,483.3803 -6.8788,157.1155 0.6862,316.6648 -14.2276,473.2394 -32.1566,337.6564 -153.9853,688.1916 -341.9594,970.1409 C 1610.0788,6535.876 1429.4535,6753.4309 1200,6831.5492 l 46.6377,84.507 98.0383,162.2536 358.9859,594.9295 c 62.7955,-26.569 122.613,-95.8986 172.3944,-141.6676 132.3144,-121.6901 255.9313,-253.9267 366.5037,-395.7972 352.0326,-451.6394 596.88,-981.5323 673.6698,-1551.5492 28.249,-209.7127 27.9955,-415.0986 27.9955,-625.3521 H 5580.845 V 3992.1126 H 3549.2957 v -3.3803 c 47.8986,-20.2479 92.2479,-66.7943 131.831,-100.0225 110.3662,-92.6197 210.1859,-196.5296 300.169,-308.9915 412.5972,-515.7837 558.1183,-1182.0507 433.3521,-1825.3521 102.2535,-18.9871 215.1211,-7.0006 317.7465,2.8056 426.0169,40.7121 797.8479,285.3194 1055.0535,622.5465 48.1352,63.1234 84.8451,131.2225 124.6648,199.4366 287.9324,-119.8682 550.4112,-299.2901 838.3098,-419.1549 -15.0084,-52.0327 -55.5042,-103.2812 -84.338,-148.7324 C 6591.3464,1893.4039 6506.2985,1783.6834 6412.9689,1680 5999.4929,1220.596 5399.9661,928.2321 4783.0985,885.93463 c -152.5859,-10.45859 -307.6394,-10.82366 -459.7183,7.42648 -59.9662,7.19662 -119.5944,16.28958 -179.1549,26.3493 -24.338,4.11042 -56.4845,17.67887 -80.9916,14.57577 -20.8563,-2.64 -38.2986,-40.18141 -50.1295,-55.41295 -40.4958,-52.10028 -82.0733,-103.17634 -126.355,-152.11268 C 3744.7098,569.78027 3577.5211,435.31943 3397.183,324.71323 2668.3605,-122.25972 1727.8276,-96.59797 1010.7042,358.48901 798.15548,493.37577 610.06309,669.62365 456.74027,868.73238 -51.80045,1529.1211 -141.82039,2445.1233 231.11121,3190.9859 c 103.01239,206.0281 240.29949,396.338 401.05216,561.1267 203.32732,208.4282 452.55213,374.0958 719.94933,488.1803 233.8783,99.7859 504.6895,173.6451 760.5633,174.3549 m 1169.5775,-3157.183 c -536.2919,329.4219 -927.191,883.5076 -1071.9414,1494.0845 -67.7104,285.6202 -73.9741,586.8439 -73.9741,878.8732 -86.0958,-20.4845 -176.8192,-20.7211 -263.662,-43.538 -216.6929,-56.9916 -421.6766,-164.8226 -588.169,-315.3465 -513.76222,-464.4676 -623.95603,-1262.3087 -237.7453,-1841.6789 56.1194,-84.1859 119.5605,-167.1617 193.8017,-236.3188 116.6704,-108.6761 246.7369,-202.92848 392.1126,-269.67891 408.4293,-187.53802 902.2006,-174.39887 1294.6479,48.70986 124.8777,70.99605 271.6901,165.31945 354.9296,284.89355 m 361.6901,794.3662 c 4.2254,97.9842 12.169,195.8907 2.8056,294.0845 -29.645,311.1211 -161.4422,605.9999 -374.3357,834.9295 -68.6096,73.7814 -148.0564,153.2924 -236.9206,202.8169 0,-100.0867 1.0952,-198.1419 14.4744,-297.4648 37.0749,-275.2124 149.2462,-535.8321 315.5324,-757.1831 55.3115,-73.6123 118.5566,-142.0935 187.1763,-203.378 28.293,-25.2541 57.2958,-56.4642 91.2676,-73.805 z" id="path205"></path>
  </g>
</svg>
