


<svg version="1.1" id="svg11265" width="208" height="120" viewBox="0 0 208 120" xmlns="http://www.w3.org/2000/svg">
  <defs id="defs11269"></defs>
  <g id="g11271">
    <path style="fill:#3e5768;stroke:none" d="m 113,10 v 1 l 6,1 v -2 h -6 M 42,49 c -3.8164,0.0926 -6.6343,0.1161 -8,4 L 40,54 27.9066,95 18,110 H 54 C 52.2057,95.8026 54.6604,82.8008 58.1265,69 59.1769,64.818 59.8237,57.4967 63.314,54.6034 67.5542,51.0885 75.8454,53.5236 81,52 V 50 L 64,49 C 68.8244,34.7392 76.5092,24.1011 85,12 65.6395,13.5813 43.8212,28.2711 42,49 M 92,12 c 0.8313,5.9446 -5.7778,14.0211 -3.7593,18.7716 4.0395,9.5067 29.4263,-1.2464 18.5303,-12.5579 C 105.155,16.5362 103.117,15.3873 101,14.4684 98.1002,13.2094 95.1085,12.4591 92,12 m 35,62 v -1 c -18.964,-14.3177 1.158,-50.566 16,-60 -5.377,-1.2276 -12.28,2.3122 -17,4.7847 -17.749,9.2966 -37.8174,42.8396 -10,54.0857 3.518,1.4221 7.242,1.9658 11,2.1296 m 22,-62 v 1 c 18.624,15.0015 0.657,48.8317 -14,60 v 1 l 20,-6 c -7.62,13.3904 -12.334,28.1464 -25,38 8.919,2.446 21.4,-10.3996 27,-16 16.549,-16.5487 40.145,-64.1636 5,-75.9599 C 157.705,12.5985 153.507,12.0373 149,12 M 21,85 26.5671,64 C 21.633524,48.14722 24.306745,47.911715 34.3627,37.7909 L 46,20 C 31.6955,24.1208 15.9068,35.8447 10.4684,50 6.11732,61.3251 9.44326,79.1313 21,85 M 131,64 c 11.793,-6.6627 18.011,-28.3464 15,-41 -12.515,5.9634 -18.741,28.345 -15,41 M 79,38 v 2 l 2,-2 h -2 m 110,0 c 2.385,28.5821 -16.145,43.9114 -31,65 25.159,-5.976 60.937,-41.8946 31,-65 M 90,43 C 91.4608,50.8965 89.7997,59.5745 80.9992,62.3472 77.3768,63.4885 71.7308,61.6888 69.314,65.3179 64.778,72.1296 58.699,99.8884 64.7276,106.486 69.3156,111.507 83.5674,111.492 90,112 87.3701,107.188 83.3496,103.46 81.7894,98 77.8775,84.3104 92.463,77.9913 103,75 99.2096,69.4513 94.969,64.7921 93.5177,58 92.4441,52.9752 94.8017,46.1129 90,43 m 35,41 -1,14 c 5.834,-2.7435 9.303,-8.2979 12,-14 h -11 m -6,26 c -1.524,-3.703 -3.745,-6.878 -3.952,-11 -0.171,-3.4099 1.803,-8.4777 -0.242,-11.4861 C 110.46,81.118 93.8801,85.5526 91.6188,92.0154 86.8205,105.73 110.559,109.333 119,110 Z" id="path11293"></path>
  </g>
</svg>
