<svg width="1000" height="200" xmlns="http://www.w3.org/2000/svg" preserveAspectRatio="xMidYMid meet" version="1.0">

 <g>
  <title>Layer 1</title>
  <g id="svg_1" fill="#000000" transform="translate(0 200) scale(0.1 -0.1)">
   <path fill="#866ca8" id="svg_2" d="m6090,1855l-55,-55l130,-130l130,-130l57,57l58,58l-127,127c-70,71 -130,128 -133,128c-3,0 -30,-25 -60,-55z"></path>
   <path fill="#866ca8" id="svg_3" d="m698,1846c-60,-16 -123,-60 -160,-110c-48,-66 -58,-121 -58,-313l0,-173l-205,0l-205,0l0,-60l0,-60l269,0l270,0l3,238c3,224 4,239 25,272c12,20 40,46 61,58c38,21 51,22 261,22l221,0l0,70l0,70l-217,-1c-143,0 -234,-5 -265,-13z"></path>
   <path fill="#866ca8" id="svg_4" d="m9043,1846c-89,-29 -147,-80 -187,-166c-25,-53 -26,-61 -26,-266c0,-242 7,-275 72,-349c22,-25 64,-58 92,-73l51,-27l298,-3l297,-3l0,-255l0,-254l-260,0l-260,0l0,125l0,125l-65,0l-65,0l0,-136c0,-154 10,-190 65,-224c30,-19 49,-20 324,-20c323,0 334,2 371,63c19,30 20,52 20,370l0,337l-322,0c-191,0 -338,4 -360,10c-21,6 -51,22 -68,37c-56,47 -60,64 -60,275c0,181 2,195 23,232c14,25 39,48 66,63c43,23 50,23 330,23c257,0 290,-2 327,-19c48,-22 80,-60 94,-112c7,-25 10,-241 8,-617l-3,-578l-27,-41c-49,-74 -66,-78 -375,-81c-292,-3 -331,1 -383,44c-54,46 -60,69 -60,229l0,145l-66,0l-66,0l4,-167c3,-167 3,-168 34,-223c36,-64 107,-122 173,-142c34,-10 127,-13 356,-13l310,0l57,28c65,32 121,89 152,156c21,45 21,54 21,661c0,581 -1,618 -19,664c-24,63 -86,130 -151,164l-50,27l-315,2c-240,2 -325,-1 -357,-11z"></path>
   <path fill="#866ca8" id="svg_5" d="m5950,1715l-55,-55l130,-130l130,-130l57,57l58,58l-127,127c-70,71 -130,128 -133,128c-3,0 -30,-25 -60,-55z"></path>
   <path fill="#866ca8" id="svg_6" d="m9095,1693c-35,-9 -77,-45 -91,-79c-10,-24 -14,-81 -14,-205c0,-192 8,-224 65,-259c31,-19 49,-20 374,-20l342,0l-3,244l-3,245l-29,30c-17,17 -46,36 -65,41c-36,10 -538,12 -576,3zm545,-288l0,-155l-257,2l-258,3l-3,153l-3,152l261,0l260,0l0,-155z"></path>
   <path fill="#866ca8" id="svg_7" d="m720,1672c-68,-34 -75,-59 -78,-314l-4,-228l271,0l271,0l0,60l0,60l-200,0l-200,0l0,155l0,155l200,0l200,0l0,65l0,65l-212,0c-183,0 -218,-3 -248,-18z"></path>
   <path fill="#866ca8" id="svg_8" d="m1723,1234c-60,-22 -127,-86 -160,-152l-28,-57l-3,-287l-3,-288l-375,0l-374,0l0,255l0,255l200,0l200,0l0,65l0,65l-270,0l-270,0l0,-385l0,-385l510,0l509,0l3,343c3,337 3,343 26,379c13,20 40,47 60,60c35,22 47,23 265,26l227,3l0,60l0,59l-237,-1c-183,0 -248,-4 -280,-15z"></path>
   <path fill="#866ca8" id="svg_9" d="m2612,1219c-69,-34 -104,-71 -138,-144c-23,-49 -24,-56 -24,-371l0,-321l31,-61c36,-73 93,-125 163,-149c47,-17 101,-18 656,-18c476,0 615,3 651,13c72,21 139,78 176,151l33,63l0,289l0,289l54,0l55,0l3,-287c3,-278 4,-290 27,-340c27,-62 93,-126 159,-156c40,-18 66,-22 167,-22c111,0 124,2 177,28c65,32 121,89 152,156c20,43 21,65 24,334l4,288l51,-3l52,-3l5,-295c5,-284 6,-297 28,-342c30,-61 100,-122 165,-145c49,-17 116,-18 1112,-18c1021,0 1062,1 1110,19c65,25 137,94 166,159c21,45 24,67 24,172c0,141 -16,186 -88,258c-77,78 -118,87 -387,87l-230,0l0,55l0,55l355,0l355,0l0,65l0,65l-372,0c-352,0 -375,-1 -405,-20c-49,-29 -63,-66 -63,-162c0,-65 4,-90 20,-115c40,-66 48,-67 325,-73l252,-5l36,-28c21,-15 44,-41 52,-57c20,-40 21,-210 0,-249c-20,-39 -69,-78 -113,-91c-53,-14 -2028,-14 -2086,1c-48,12 -87,44 -113,92c-16,28 -19,71 -23,333c-5,284 -6,303 -25,324c-36,39 -69,50 -160,50c-103,0 -136,-15 -165,-75c-18,-38 -20,-63 -20,-318c0,-305 -3,-322 -59,-370c-43,-35 -102,-50 -181,-45c-84,6 -135,31 -168,81l-27,40l-5,301c-5,327 -6,332 -63,366c-25,16 -51,20 -120,20c-103,0 -134,-13 -166,-70c-20,-36 -21,-52 -21,-319c0,-215 -3,-289 -14,-314c-17,-42 -66,-83 -114,-97c-50,-14 -1144,-14 -1194,0c-48,14 -97,55 -114,97c-20,47 -20,589 0,636c17,42 66,83 114,97c21,6 149,10 302,10c328,-1 357,-9 401,-105c17,-36 19,-71 19,-372l0,-333l239,0l239,0l33,27c56,48 59,65 59,368c0,303 3,320 59,368c43,36 102,50 187,45c84,-6 131,-30 166,-86c22,-36 23,-46 28,-337c4,-265 7,-304 23,-328c31,-47 69,-59 172,-55c83,3 96,6 121,28c51,48 54,67 54,365c0,303 3,320 59,368c40,33 89,47 166,47c105,-1 163,-32 196,-105c17,-36 19,-70 19,-323c0,-313 2,-325 63,-362c30,-19 53,-20 460,-20l427,0l0,385l0,385l-265,0l-265,0l0,-65l0,-65l205,0l205,0l0,-255l0,-255l-350,0l-350,0l0,280c0,321 -6,354 -82,430c-77,77 -103,85 -268,85c-170,0 -196,-9 -274,-95c-71,-80 -76,-107 -76,-427l0,-273l-55,0l-55,0l0,274c0,330 -4,351 -90,437c-74,74 -118,89 -269,89c-101,0 -123,-3 -167,-24c-60,-28 -115,-80 -146,-139c-22,-40 -23,-53 -26,-339l-3,-298l-160,0l-159,0l0,288c0,280 -1,288 -24,337c-34,73 -69,110 -138,144l-61,31l-327,0l-327,0l-61,-31z"></path>
   <path fill="#866ca8" id="svg_10" d="m5670,1190l0,-60l285,0l285,0l0,-405l0,-405l598,0c566,0 599,1 628,19c46,28 64,76 64,169c0,66 -4,85 -23,113c-43,64 -64,69 -322,69c-220,0 -232,1 -270,23c-22,12 -50,38 -63,57c-22,32 -23,43 -20,145c3,126 18,158 85,191c35,17 70,19 411,22l372,3l0,59l0,60l-383,0c-432,0 -442,-1 -522,-72c-25,-22 -58,-64 -73,-92c-25,-48 -27,-59 -27,-181c0,-122 2,-133 27,-181c15,-28 48,-70 73,-92c75,-66 105,-72 372,-72l233,0l0,-55l0,-55l-515,0l-515,0l0,400l0,400l-350,0l-350,0l0,-60z"></path>
   <path fill="#866ca8" id="svg_11" d="m70,1025l0,-65l205,0l205,0l0,-255l0,-255l-205,0l-205,0l0,-65l0,-65l270,0l270,0l0,385l0,385l-270,0l-270,0l0,-65z"></path>
   <path fill="#866ca8" id="svg_12" d="m1763,1070c-62,-37 -63,-44 -63,-415l0,-335l270,0l270,0l0,65l0,65l-205,0l-205,0l0,255l0,255l205,0l205,0l0,65l0,65l-222,0c-204,0 -226,-2 -255,-20z"></path>
   <path fill="#866ca8" id="svg_13" d="m2676,1071c-62,-42 -65,-57 -66,-364c0,-305 1,-311 60,-361l32,-26l344,0l344,0l0,345l0,345l-34,38l-34,37l-309,3c-292,2 -310,1 -337,-17zm584,-366l0,-255l-260,0l-260,0l0,255l0,255l260,0l260,0l0,-255z"></path>
   <path fill="#866ca8" id="svg_14" d="m7840,385l0,-65l425,0l425,0l0,65l0,65l-425,0l-425,0l0,-65z"></path>
   <path fill="#866ca8" id="svg_15" d="m70,215l0,-65l1085,0l1085,0l0,65l0,65l-1085,0l-1085,0l0,-65z"></path>
   <path fill="#866ca8" id="svg_16" d="m7840,215l0,-65l425,0l425,0l0,65l0,65l-425,0l-425,0l0,-65z"></path>
  </g>
 </g>
</svg>