


<svg version="1.1" id="svg10465" width="1333.3333" height="453.33334" viewBox="0 0 1333.3333 453.33334" xmlns="http://www.w3.org/2000/svg">
  <defs id="defs10469"></defs>
  <g id="g10471">
    <g id="g10511">
      <path id="path10515" style="fill:#735ef7;stroke-width:1.33333" d="m 761.92188,132.12305 c -12.60563,0.64054 -22.41533,10.55714 -22.27735,25.20703 0.11031,11.71061 5.53968,19.69988 15.89649,23.39258 11.08427,3.95208 22.47325,0.78511 29.28125,-8.14063 3.40959,-4.4702 3.84375,-6.12185 3.84375,-14.57617 0,-12.1452 -4.01587,-19.08135 -13.47071,-23.26367 -4.55823,-2.01633 -9.07156,-2.83266 -13.27343,-2.61914 z m -484.35547,29.21093 c -28.01233,0 -46.85705,10.06894 -52.69922,28.15821 -1.21044,3.74789 -2.20117,7.94566 -2.20117,9.32812 0,2.05269 -1.03834,2.53043 -5.66602,2.61133 -5.92234,0.10354 -11.81626,0.9393 -12.67383,1.79688 -1.32289,1.32288 -1.21179,10.22999 0.13867,11.10742 0.84385,0.54828 5.13516,0.99804 9.53516,0.99804 h 8 l 0.4043,22 c 0.44013,23.9322 -0.56247,30.03512 -5.78907,35.26172 -1.80556,1.80556 -3.28125,3.52028 -3.28125,3.81055 0,0.29027 10.04871,1.27877 22.33204,2.19531 12.28333,0.91655 22.58311,1.90605 22.88867,2.19922 0.89132,0.85524 12.11133,0.61274 12.11133,-0.26172 0,-0.4368 -1.1084,-2.38745 -2.4629,-4.33398 -4.7499,-6.82601 -5.5371,-12.12253 -5.5371,-37.25586 v -24.6543 l 6.8125,0.80664 c 3.747,0.44377 8.81017,1.98429 11.25,3.42383 5.37039,3.1686 6.23603,2.41187 8.99609,-7.85937 1.08383,-4.03333 2.40286,-8.38268 2.93164,-9.66602 0.8835,-2.14417 -0.30439,-2.33398 -14.66211,-2.33398 h -15.625 l 0.92969,-4.95313 c 1.94253,-10.35464 5.85683,-14.92717 13.64844,-15.94531 7.39773,-0.96665 11.853,1.29456 15.10546,7.66992 1.55607,3.05014 3.30337,5.02592 3.88086,4.38867 2.19317,-2.42013 9.41203,-22.34415 8.42969,-23.26562 -3.13979,-2.94521 -14.83715,-5.22657 -26.79687,-5.22657 z m 787.26559,11.26758 c -2.8672,-0.11786 -5.8527,-0.10733 -9.0644,0.0156 -27.4982,1.05277 -42.4741,13.08206 -42.8516,34.41797 -0.295,16.66955 6.1186,28.25838 19.5664,35.35156 6.3467,3.3476 8.0284,3.61328 22.8516,3.61328 14.2851,0 16.8919,-0.37642 24.332,-3.51172 l 8.334,-3.51172 v 3.31055 c 0,9.74837 -10.3916,20.63626 -21.9941,23.04492 -14.6921,3.05006 -29.6937,-2.14565 -41.6719,-14.43164 -3.1167,-3.19675 -5.668,-5.26408 -5.668,-4.59375 0,2.46106 9.6626,34.39961 10.7637,35.57813 0.6257,0.66956 6.711,1.60992 13.5215,2.08984 33.922,2.39042 56.7676,-4.66005 73.6758,-22.73633 9.7293,-10.40136 13.2324,-19.38252 13.2324,-33.9043 -0,-10.74652 -0.4451,-12.92022 -4.2422,-20.81054 -6.8674,-14.27025 -17.8862,-23.35296 -35.1504,-28.97266 -9.4845,-3.08732 -17.0331,-4.59564 -25.6348,-4.94922 z m -455.2695,13.1836 c -5.58963,-0.36977 -11.40952,0.75193 -17.08203,3.46289 -4.29728,2.05372 -9.25121,5.29596 -11.00781,7.20312 C 577.34599,200.93153 576,199.93823 576,192.41406 v -6.0957 l -5,0.88086 c -11.72552,2.06719 -33.42568,4.75139 -38.61133,4.77539 l -5.61133,0.0254 4.27735,6.88477 4.27929,6.88671 v 37.54688 37.54687 l -3.66796,5.53907 C 529.64936,289.45071 528,292.53848 528,293.26562 c 0,0.78164 6.67753,1.47471 16.33398,1.69532 8.98333,0.20526 21.88268,0.56367 28.66602,0.79687 7.68668,0.26425 12.33398,-0.0834 12.33398,-0.92187 0,-0.73992 -0.5315,-1.67363 -1.17968,-2.07422 -0.64817,-0.4006 -2.56521,-3.58545 -4.26172,-7.07813 -2.81849,-5.80253 -3.13293,-8.54374 -3.62696,-31.77734 l -0.53906,-25.42773 4.23828,-4.23829 c 5.52802,-5.52804 13.92001,-5.99556 18.58008,-1.03515 4.31503,4.59315 5.39151,11.0061 5.39063,32.1289 -8.5e-4,20.26058 -1.26891,28.38259 -5.32032,34.07227 -1.43826,2.01984 -2.61523,4.32935 -2.61523,5.13281 0,1.0136 8.77573,1.46094 28.66602,1.46094 15.76667,0 28.66796,-0.27333 28.66796,-0.60742 0,-0.33411 -1.45388,-2.74926 -3.23046,-5.36719 C 645.32431,282.98283 644,274.30804 644,250.03711 v -21.83203 l 4.01562,-4.01563 c 6.75316,-6.75315 16.13198,-6.06674 20.71876,1.51563 2.34045,3.86899 2.5996,6.88162 2.5996,30.35937 v 26.06446 l -4.29687,6.60156 -4.29688,6.60351 28.82618,0.35938 c 15.85399,0.19794 29.06044,0.1251 29.34765,-0.16211 0.28723,-0.28723 -1.45177,-3.69687 -3.86328,-7.57617 l -4.38476,-7.05274 -0.79493,-30.78515 c -0.68155,-26.35821 -1.20284,-32.0306 -3.62695,-39.45117 -5.56237,-17.02731 -15.98181,-24.67565 -33.57812,-24.65235 -8.56187,0.0114 -11.02528,0.57867 -17.13086,3.94922 -3.92212,2.16518 -9.69868,6.79359 -12.83789,10.28516 l -5.70899,6.34765 -5.16016,-6.96484 c -6.27503,-8.46804 -14.94957,-13.22942 -24.26562,-13.8457 z m 247.10352,2.23828 c -35.94371,0.0538 -55.33323,20.0672 -46.82618,48.33398 4.85216,16.12251 13.87193,20.93315 46.53516,24.81836 5.70668,0.67879 11.25732,1.96583 12.33398,2.85938 2.97002,2.46491 2.38003,7.62671 -1.13476,9.92968 -4.31045,2.82432 -17.30711,3.87234 -27.37891,2.20704 -11.37461,-1.88072 -19.5762,-6.06132 -27.19531,-13.86329 -3.48333,-3.56695 -6.33875,-5.69602 -6.34375,-4.73047 -0.009,1.58836 5.08807,28.86601 6.10547,32.67188 0.59239,2.21596 8.80373,4.32604 20.57226,5.28516 5.5,0.44824 10.23464,1.01953 10.52149,1.27148 1.04587,0.91857 26.29225,-0.94833 31.45508,-2.32617 20.82513,-5.55774 33.23679,-19.99251 33.11133,-38.50977 -0.14412,-21.27171 -14.49445,-32.87447 -43.75586,-35.375 -17.03667,-1.45587 -23.49964,-5.02185 -18.37891,-10.14258 3.54168,-3.54169 17.24981,-4.78156 27.22461,-2.46289 7.65294,1.77896 18.53185,7.34331 23.57617,12.0586 1.69848,1.5877 3.38158,2.59302 3.74023,2.23437 1.42987,-1.42987 -5.36086,-29.14057 -7.4082,-30.23047 -3.16172,-1.68313 -24.72577,-4.04729 -36.7539,-4.02929 z m -393.46094,0.22461 c -3.48166,0.003 -7.08041,0.28182 -10.77344,0.85156 -23.50859,3.62677 -39.0077,17.89184 -43.11914,39.68164 -5.71963,30.31291 8.1122,55.70522 35.16602,64.55664 11.27026,3.68737 31.82418,3.03094 41.375,-1.32227 22.19273,-10.11529 32.7024,-37.80302 25.68164,-67.6582 -5.30915,-22.5767 -23.95844,-36.12781 -48.33008,-36.10937 z m -66.8457,2.00781 -7.25977,0.75 c -10.44376,1.07789 -21.36865,7.8159 -28.76172,17.74023 l -2.91992,3.91993 -0.043,-10.33204 c -0.048,-11.73548 0.25626,-11.51425 -12.0957,-8.86523 -3.76852,0.80821 -13.67371,2.15821 -22.01172,3 L 308.10742,198 l 3.88086,5.76758 c 5.07338,7.54296 5.65159,12.24641 5.11914,41.62109 -0.40579,22.38668 -0.71454,25.11169 -3.4082,30.1543 -1.62872,3.04903 -3.7278,5.81842 -4.66406,6.15234 -4.01824,1.43308 1.13092,2.31687 23.03125,3.95703 12.79697,0.95839 25.51757,1.90353 28.26757,2.09961 5.99365,0.42733 6.17838,-0.69118 1.33204,-8.01953 C 358.13585,274.39432 358,273.53792 358,256.75977 c 0,-16.06663 0.249,-17.8281 3.19336,-22.56446 4.18569,-6.73319 10.03628,-10.18245 17.27344,-10.18945 4.85422,-0.004 6.5611,0.75447 10.46679,4.66016 2.56667,2.56667 4.80175,4.66796 4.9668,4.66796 0.16505,0 0.41465,-6.45064 0.55469,-14.33398 0.14004,-7.88333 0.62461,-17.57629 1.07812,-21.53906 z m 674.66602,1.54687 c 3.9522,0.0913 7.9913,1.0207 10.7988,2.75586 11.3521,7.01596 11.0636,25.33367 -0.4902,31.10547 -9.4201,4.70588 -20.3005,1.67434 -25.1856,-7.01758 -4.9864,-8.87212 -2.9759,-19.61378 4.5977,-24.57617 2.4624,-1.61344 6.3271,-2.35886 10.2793,-2.26758 z m -307.06642,0.0508 c -14.34126,-0.13681 -28.58751,-0.11056 -28.54296,0.21484 0.045,0.32855 1.84497,3.59895 4,7.26562 l 3.91796,6.66602 0.41211,34.74023 c 0.38652,32.57652 0.23704,35.20357 -2.38476,42.21094 -1.53772,4.10994 -3.67183,8.19992 -4.74414,9.08985 -1.07231,0.88993 -1.95117,2.235 -1.95117,2.98828 0,0.92078 9.2853,1.09359 28.33398,0.52539 15.58333,-0.46484 28.73945,-0.85519 29.23633,-0.86719 0.49686,-0.0116 -1.00183,-3.7138 -3.33203,-8.22852 l -4.23828,-8.20898 -0.4375,-30.79102 c -0.4766,-33.55458 0.47655,-41.53044 5.91796,-49.54882 1.82528,-2.68971 3.13875,-5.07023 2.91797,-5.29102 -0.3281,-0.32811 -14.76421,-0.62881 -29.10547,-0.76562 z m -309.69921,18.33593 c 7.44538,-1.31135 15.71224,9.09975 20.59375,27.81055 4.30104,16.48587 2.57733,31.71378 -3.98633,35.22656 -3.60503,1.92934 -5.54936,1.77261 -9.65039,-0.77344 -12.11057,-7.51864 -21.50407,-45.78372 -13.97266,-56.91796 2.14349,-3.16887 4.53383,-4.90859 7.01563,-5.34571 z m 552.52543,78.75977 -19.05864,0.97851 c -10.48275,0.53864 -31.0599,1.67511 -45.72656,2.52539 L 915.33398,294 l -0.38671,11.66602 c -0.32932,9.97309 -0.0744,11.66796 1.75195,11.66796 4.52453,0 73.71076,-5.39689 81.30078,-6.34179 l 8,-0.9961 0.3926,-10.52343 z"></path>
      <path style="fill:#00f674;stroke-width:1.33333" d="m 643.55406,443.18246 c -0.12146,-0.0829 -22.72074,-0.57773 -50.22074,-1.09945 -27.5,-0.52172 -51.8,-1.12835 -54,-1.34804 -2.2,-0.2197 -11.8,-0.80504 -21.33333,-1.30075 -9.53334,-0.49572 -20.03334,-1.13307 -23.33334,-1.41632 -3.3,-0.28325 -12.3,-0.87992 -20,-1.32592 -7.7,-0.446 -19.39999,-1.36825 -25.99999,-2.04945 -6.6,-0.68119 -15.6,-1.53504 -20,-1.89744 C 385.99804,429.23069 319.90302,421.26454 267.99999,413.38065 229.75917,407.57198 132.38858,389.71135 112,384.76566 c -4.03334,-0.97837 -10.63334,-2.46797 -14.666669,-3.31023 -13.447866,-2.80821 -64.610104,-14.71985 -68.666665,-15.98704 -2.2,-0.68724 -5.95,-1.64644 -8.333333,-2.13156 L 16,362.45479 15.975558,302.22739 C 15.962116,269.10234 15.733322,209.1673 15.467128,169.03844 15.1161,116.12071 15.397532,95.543153 16.491569,94.134068 17.848141,92.386847 30.936189,88.873424 76.666665,77.980352 110.5036,69.920341 186.95604,54.043281 213.99999,49.460011 c 43.05394,-7.296556 59.2015,-9.917789 78.66667,-12.76996 55.98593,-8.20344 96.53712,-13.049705 156,-18.643531 35.10794,-3.302694 66.26213,-5.177226 142.66666,-8.5841789 29.58429,-1.3191928 129.69784,-1.337657 163.99999,-0.030247 36.96279,1.4088189 61.75124,2.5687309 69.33334,3.2442749 3.66666,0.32669 13.26666,0.938553 21.33333,1.359694 8.06667,0.421141 17.66667,1.027789 21.33333,1.348108 3.66667,0.320317 17.46667,1.497733 30.66667,2.61648 13.2,1.118747 26.4,2.318644 29.33333,2.666437 2.93333,0.347795 19.43333,2.145371 36.66667,3.994615 17.23333,1.849244 32.83333,3.631295 34.66666,3.960112 1.83336,0.328818 8.73336,1.282746 15.33336,2.119842 13.0862,1.659757 17.4412,2.272132 45.3333,6.374392 36.5416,5.374402 73.9063,11.747119 98.6667,16.828024 5.1333,1.053377 15.9333,3.209532 24,4.791455 17.3663,3.405646 16.0609,3.138352 28.6666,5.869612 5.5,1.19167 13.2469,2.791336 17.2153,3.55481 3.9684,0.763474 14.7684,3.162281 24,5.330679 9.2316,2.1684 21.8847,5.105323 28.1181,6.526496 17.4012,3.967414 35.929,8.800823 36.7031,9.574864 0.3828,0.38279 1.074,60.688401 1.5361,134.012471 0.7164,113.69431 0.5644,133.48756 -1.0329,134.47884 -2.2218,1.37884 -29.123,8.17339 -75.873,19.16357 -23.6143,5.55135 -90.1189,19.16376 -114.6667,23.47042 -6.9666,1.22222 -20.7666,3.676 -30.6666,5.45285 -33.8612,6.07735 -101.76492,15.84041 -138.00002,19.84135 -10.26667,1.1336 -20.46667,2.32546 -22.66667,2.6486 -2.2,0.32313 -7.9,0.90444 -12.66667,1.2918 -4.76666,0.38736 -21.26666,1.86846 -36.66666,3.29136 -15.4,1.42288 -34.9,2.96262 -43.33333,3.42166 -8.43334,0.45904 -17.13334,1.05214 -19.33334,1.31799 -2.2,0.26587 -12.1,0.87936 -22,1.36333 -9.9,0.48398 -19.5,1.12042 -21.33333,1.41431 -4.35679,0.69843 -135.56022,3.02729 -136.44592,2.42192 z M 954.41792,314.66071 c 19.57014,-1.46995 39.18206,-3.1208 43.58206,-3.66857 L 1006,309.9962 l 0.3929,-10.52342 0.3928,-10.52344 -19.05951,0.97933 c -10.48275,0.53864 -31.05955,1.67504 -45.72621,2.52533 l -26.66667,1.546 -0.38524,11.66667 c -0.32932,9.97309 -0.0751,11.66667 1.75128,11.66667 1.17508,0 18.14844,-1.20268 37.71857,-2.67263 z m -79.10694,-20.18027 c 7.60645,-2.02998 16.58249,-6.87562 22.27989,-12.02761 13.37019,-12.09028 14.66517,-34.65381 2.78779,-48.57395 -6.00686,-7.03996 -18.93642,-11.84886 -35.71201,-13.28242 -17.03667,-1.45587 -23.49955,-5.02284 -18.37882,-10.14356 3.54168,-3.5417 17.24923,-4.78199 27.22403,-2.46332 7.65294,1.77896 18.53196,7.34321 23.57628,12.0585 1.69848,1.5877 3.38158,2.59328 3.74024,2.23463 1.42986,-1.42987 -5.36074,-29.14033 -7.40808,-30.23023 -3.16172,-1.68313 -24.72552,-4.047 -36.75365,-4.02901 -18.75439,0.028 -32.73375,5.02957 -41.46379,14.83489 -6.74812,7.57928 -8.97555,21.49436 -5.36243,33.49984 4.85216,16.12251 13.87211,20.93303 46.53534,24.81824 5.70668,0.67879 11.25667,1.96524 12.33333,2.85879 2.97002,2.46491 2.38033,7.62628 -1.13446,9.92925 -4.31045,2.82432 -17.30838,3.87178 -27.38018,2.20647 -11.37461,-1.88072 -19.57537,-6.06136 -27.19448,-13.86333 -3.48333,-3.56695 -6.33795,-5.69538 -6.34359,-4.72982 -0.009,1.58836 5.08876,28.86664 6.10616,32.67251 0.59239,2.21596 8.80223,4.32477 20.57076,5.28389 5.5,0.44824 10.23471,1.02112 10.52156,1.27307 1.04587,0.91857 26.29328,-0.94899 31.45611,-2.32683 z m -389.45691,-2.46558 c 22.19273,-10.1153 32.7019,-37.80164 25.68114,-67.65682 -6.0676,-25.80194 -29.5587,-39.8154 -59.10295,-35.25746 -23.50859,3.62677 -39.00908,17.89066 -43.12052,39.68046 -5.71963,30.31291 8.11262,55.70552 35.16644,64.55694 11.27026,3.68737 31.82507,3.03008 41.37589,-1.32312 z m -24.63768,-19.56119 c -12.11057,-7.51864 -21.50456,-45.78435 -13.97315,-56.91859 8.57394,-12.67548 21.10071,-2.48282 27.60939,22.46492 4.30104,16.48587 2.57822,31.71324 -3.98544,35.22602 -3.60503,1.92934 -5.54977,1.7737 -9.6508,-0.77235 z m 124.11693,22.38236 c 0,-0.73992 -0.53033,-1.67308 -1.17851,-2.07367 -0.64817,-0.4006 -2.56657,-3.58601 -4.26308,-7.07869 -2.81849,-5.80253 -3.13122,-8.54375 -3.62525,-31.77735 l -0.54067,-25.42701 4.23966,-4.23965 c 5.52802,-5.52804 13.92005,-5.9956 18.58012,-1.03519 4.31503,4.59315 5.39087,11.00607 5.38999,32.12887 -8.5e-4,20.26058 -1.26918,28.38288 -5.32059,34.07256 -1.43826,2.01984 -2.615,4.3298 -2.615,5.13326 0,1.0136 8.77637,1.46084 28.66666,1.46084 15.76667,0 28.66667,-0.27336 28.66667,-0.60745 0,-0.33411 -1.45356,-2.7494 -3.23014,-5.36733 -4.77921,-7.04256 -6.1032,-15.71735 -6.1032,-39.98828 v -21.8318 l 4.0155,-4.01551 c 6.75316,-6.75315 16.13272,-6.06728 20.7195,1.51509 2.34046,3.86899 2.59834,6.88208 2.59834,30.35983 v 26.06455 l -4.29644,6.60212 -4.29643,6.60212 28.82544,0.35988 c 15.85399,0.19793 29.06044,0.12493 29.34765,-0.16234 0.28723,-0.28722 -1.45082,-3.69618 -3.86233,-7.57549 l -4.38456,-7.05327 -0.796,-30.7844 c -0.68155,-26.35821 -1.20305,-32.03048 -3.62716,-39.45105 -5.56237,-17.02731 -15.98053,-24.67673 -33.57684,-24.65343 -8.56187,0.012 -11.02555,0.5794 -17.13113,3.94995 -3.92212,2.16519 -9.69959,6.79344 -12.8388,10.28501 l -5.70768,6.34831 -5.1612,-6.96492 c -10.04006,-13.54885 -26.22122,-17.61212 -41.34793,-10.38291 -4.29728,2.05372 -9.25047,5.29443 -11.00707,7.20159 -4.12667,4.48036 -5.47285,3.48743 -5.47285,-4.03675 v -6.09576 l -5,0.88148 c -11.72552,2.06719 -33.42595,4.75068 -38.6116,4.77474 l -5.61159,0.026 4.27825,6.88534 4.27827,6.88535 v 37.54715 37.54716 l -3.66667,5.5389 c -2.01666,3.04642 -3.66666,6.13386 -3.66666,6.861 0,0.78164 6.67688,1.47464 16.33333,1.69526 8.98333,0.20525 21.88333,0.56397 28.66667,0.79717 7.68668,0.26425 12.33333,-0.0828 12.33333,-0.92131 z m 206.90341,-0.14832 c 0.49686,-0.012 -1.00314,-3.71489 -3.33334,-8.22961 l -4.23674,-8.20858 -0.43735,-30.79142 c -0.4766,-33.55458 0.47571,-41.52866 5.91712,-49.54704 1.82528,-2.68971 3.13805,-5.071 2.91727,-5.29179 -0.6562,-0.6562 -57.7377,-1.20075 -57.64859,-0.54996 0.0449,0.32855 1.84497,3.59736 4,7.26403 l 3.91821,6.66666 0.41218,34.73927 c 0.38652,32.57652 0.23812,35.20448 -2.38368,42.21185 -1.53772,4.10994 -3.6732,8.20074 -4.74551,9.09067 -4.77453,3.96251 -1.83477,4.35384 26.38368,3.51211 15.58333,-0.46484 28.73987,-0.85463 29.23675,-0.86619 z M 365.33332,286.6921 c 0,-0.77876 -1.65,-3.91098 -3.66666,-6.96046 -3.53018,-5.3381 -3.66667,-6.19326 -3.66667,-22.97141 0,-16.06663 0.24928,-17.82789 3.19364,-22.56425 4.18569,-6.73319 10.03587,-10.18478 17.27303,-10.19099 4.85421,-0.004 6.56097,0.75599 10.46666,4.66168 2.56667,2.56667 4.80171,4.66667 4.96676,4.66667 0.16506,0 0.41467,-6.45 0.55471,-14.33334 0.14004,-7.88333 0.62565,-17.5756 1.07916,-21.53837 l 0.82453,-7.20504 -7.25861,0.74916 c -10.44376,1.07789 -21.36904,7.81688 -28.76211,17.74121 l -2.91996,3.91971 -0.0423,-10.33333 c -0.048,-11.73548 0.25578,-11.5129 -12.09618,-8.86388 -3.76852,0.80821 -13.67385,2.15821 -22.01186,3 l -15.16,1.53054 3.87979,5.76838 c 5.07337,7.54296 5.65182,12.24584 5.11937,41.62052 -0.40579,22.38668 -0.71376,25.11216 -3.40741,30.15477 -1.62872,3.04903 -3.72736,5.81688 -4.66363,6.1508 -4.84973,1.72963 2.08027,2.54789 51.29768,6.05707 2.86269,0.2041 5,-0.24876 5,-1.05944 z m 709.09688,-3.4727 c 7.7319,-0.99968 22.1501,-6.5064 29.7719,-11.37073 8.8363,-5.6394 18.0756,-16.01993 22.153,-24.88911 2.9618,-6.44242 3.5057,-9.48896 3.5044,-19.62622 0,-10.74652 -0.4445,-12.92034 -4.2416,-20.81066 -6.8674,-14.27025 -17.8869,-23.35276 -35.1511,-28.97246 -12.646,-4.11643 -21.8517,-5.42528 -34.6987,-4.93343 -27.4982,1.05277 -42.4754,13.08181 -42.8529,34.41772 -0.295,16.66955 6.1198,28.25895 19.5676,35.35213 6.3467,3.3476 8.0273,3.61336 22.8505,3.61336 14.2851,0 16.8932,-0.37638 24.3333,-3.51168 L 1088,238.97664 v 3.31018 c 0,9.74837 -10.3916,20.63662 -21.9941,23.04528 -14.6921,3.05006 -29.6944,-2.14524 -41.6726,-14.43123 -3.1167,-3.19675 -5.6667,-5.2638 -5.6667,-4.59347 0,2.46106 9.6628,34.39816 10.7639,35.57664 2.3664,2.53247 29.5108,3.33796 44.9997,1.33536 z m -11.2809,-57.47586 c -8.2616,-4.11876 -12.2681,-17.13403 -7.8841,-25.61175 2.915,-5.63715 8.0734,-8.39288 15.6012,-8.33457 11.2704,0.0873 17.4617,5.65238 19.1868,17.24616 2.0239,13.60201 -13.629,23.31829 -26.9039,16.70016 z m -792.48264,54.79562 c 0,-0.4368 -1.10823,-2.3868 -2.46273,-4.33333 -4.7499,-6.82601 -5.53727,-12.12384 -5.53727,-37.25717 v -24.65343 l 6.81273,0.80687 c 3.747,0.44377 8.80896,1.98466 11.24879,3.4242 5.37039,3.1686 6.23691,2.41161 8.99697,-7.85963 1.08383,-4.03333 2.40326,-8.38333 2.93204,-9.66667 0.8835,-2.14417 -0.30521,-2.33333 -14.66293,-2.33333 h -15.62437 l 0.92936,-4.95392 c 1.94253,-10.35464 5.85684,-14.92785 13.64845,-15.94599 7.39773,-0.96665 11.85335,1.29612 15.10581,7.67148 1.55607,3.05014 3.3017,5.02432 3.87919,4.38707 2.19317,-2.42013 9.41249,-22.34385 8.43015,-23.26532 -3.13979,-2.94521 -14.83627,-5.22665 -26.79599,-5.22665 -28.01233,0 -46.85723,10.06926 -52.6994,28.15853 -1.21044,3.74789 -2.2008,7.94545 -2.2008,9.32791 0,2.05269 -1.03899,2.53172 -5.66667,2.61264 -5.92234,0.1036 -11.81588,0.93902 -12.67345,1.7966 -1.32289,1.32288 -1.21127,10.23002 0.13919,11.10745 0.84385,0.54828 5.13426,0.99687 9.53426,0.99687 h 8 l 0.40459,22 c 0.44013,23.9322 -0.56181,30.03601 -5.78841,35.26261 -1.80556,1.80556 -3.28284,3.52033 -3.28284,3.8106 0,0.29027 10.05,1.27767 22.33333,2.19421 12.28333,0.91655 22.58333,1.90634 22.88889,2.19951 0.89132,0.85524 12.11111,0.61335 12.11111,-0.26111 z M 775.4881,180.11584 c 3.01847,-1.37073 7.21847,-4.76085 9.33333,-7.53358 3.40959,-4.4702 3.84522,-6.12152 3.84522,-14.57584 0,-8.14906 -0.5282,-10.33266 -3.63504,-15.0274 -9.79354,-14.79905 -33.93734,-14.28875 -42.24474,0.89286 -3.77857,6.90528 -4.27893,18.72188 -1.05521,24.92044 6.1856,11.89367 21.32084,16.97076 33.75644,11.32352 z" id="path10513"></path>
    </g>
  </g>
</svg>
