
<svg width="500" height="107.999" viewBox="0 0 374.99999 80.99925" version="1.1" id="svg874" xmlns="http://www.w3.org/2000/svg">
  <defs id="defs878"></defs>
  <g id="#fefefeff"></g>
  <g id="#0c0a0aff">
    <g id="g1498" transform="matrix(1.3871447,0,0,1.3871447,-6.5195801,-418.81673)" style="fill:#d3e180;fill-opacity:1">
      <path fill="#0c0a0a" opacity="1" d="m 4.77,317.03 c -0.37,-8.53 7.91,-15.86 16.29,-15.04 5.16,0.1 9.56,3.35 12.62,7.27 -1.76,1.09 -3.55,2.13 -5.38,3.09 -1.66,-1.87 -3.61,-3.68 -6.17,-4.11 -5.35,-1.41 -11.14,3.06 -11.47,8.5 -0.37,5.05 -0.01,10.13 -0.16,15.19 6.02,0.12 12.04,-0.06 18.05,0.15 -0.02,1.72 -0.04,3.45 -0.05,5.18 -6,-0.03 -11.99,-0.01 -17.99,0 0.04,6.01 -0.01,12.03 0.02,18.04 -1.94,-0.01 -3.89,-0.01 -5.83,0 0.07,-12.76 -0.02,-25.51 0.07,-38.27 z" id="path855" style="fill:#d3e180;fill-opacity:1"></path>
      <path fill="#0c0a0a" opacity="1" d="m 175.56,302.65 c 3.49,-1.75 8.03,1.23 7.16,5.21 -0.39,4.19 -6.62,5.48 -8.78,1.98 -1.75,-2.33 -0.78,-5.73 1.62,-7.19 z" id="path857" style="fill:#d3e180;fill-opacity:1"></path>
      <path fill="#0c0a0a" opacity="1" d="m 253.4,303.44 c 9.01,-4.25 20.97,2.41 21.56,12.47 0.13,13.2 0.03,26.41 0.08,39.62 -2.01,-0.01 -4.02,0 -6.02,0.01 -0.13,-8.4 -0.04,-16.8 -0.04,-25.2 -6.71,4.92 -17.24,3.66 -22.05,-3.31 -5.92,-7.57 -2.61,-20.19 6.47,-23.59 m 4,5.07 c -7.32,1.28 -9.98,11.71 -4.19,16.33 4.78,4.76 13.7,2.1 15.44,-4.32 2.32,-6.61 -4.49,-13.93 -11.25,-12.01 z" id="path859" style="fill:#d3e180;fill-opacity:1"></path>
      <path fill="#0c0a0a" opacity="1" d="m 42.14,320.2 c 5,-5.18 13.71,-5.95 19.64,-1.95 1.94,1.27 3.38,3.11 4.87,4.86 -1.77,1.08 -3.6,2.06 -5.47,2.98 -1.57,-1.99 -3.61,-3.71 -6.18,-4.14 -5.52,-1.31 -11.33,3.47 -11.4,9.08 -0.24,8.15 0,16.32 -0.09,24.48 -2.01,0 -4.02,0 -6.02,0.02 0.01,-7.87 -0.02,-15.73 0.01,-23.6 -0.01,-4.31 1.45,-8.73 4.64,-11.73 z" id="path861" style="fill:#d3e180;fill-opacity:1"></path>
      <path fill="#0c0a0a" opacity="1" d="m 109.26,330.04 c 0.18,-8 7.81,-14.78 15.75,-14.34 4.81,-0.09 9.28,2.41 12.29,6.06 4.89,-6.4 14.7,-8.08 21.32,-3.45 4.2,2.83 6.77,7.75 6.86,12.79 0.08,8.14 0.03,16.28 0.02,24.42 -2.01,-0.01 -4.02,0 -6.03,0.01 -0.09,-8.27 0.2,-16.54 -0.12,-24.79 -0.11,-5.56 -5.92,-10.08 -11.33,-8.83 -4.31,0.75 -7.64,4.77 -7.7,9.13 -0.12,8.15 -0.02,16.3 -0.02,24.46 -2.01,0.01 -4.01,0.02 -6.02,0.04 -0.09,-8.16 0.02,-16.33 -0.05,-24.49 0.09,-4.93 -4.4,-9.34 -9.28,-9.34 -4.99,-0.19 -9.75,4.19 -9.69,9.25 -0.03,8.19 -0.01,16.38 0.01,24.58 -2.02,-0.03 -4.04,-0.04 -6.05,-0.06 0.08,-8.48 -0.02,-16.96 0.04,-25.44 z" id="path863" style="fill:#d3e180;fill-opacity:1"></path>
      <path fill="#0c0a0a" opacity="1" d="m 175.02,315.73 c 1.98,0 3.95,0 5.93,0.01 0.14,13.26 0.04,26.52 0.1,39.78 -2,0 -4,0.01 -6,0.03 C 174.87,342.28 175,329 175.02,315.73 Z" id="path865" style="fill:#d3e180;fill-opacity:1"></path>
      <path fill="#0c0a0a" opacity="1" d="m 194.08,320.05 c 6.84,-6.88 19.47,-5.25 24.43,3.07 -1.76,1.05 -3.57,2 -5.4,2.91 -2.54,-3.29 -6.95,-5.4 -11.05,-3.79 -4.21,1.27 -6.62,5.56 -6.7,9.79 7.73,-0.09 15.46,-0.13 23.19,0.04 -0.35,5.19 0.99,10.84 -1.9,15.53 -3.52,6.74 -12.35,9.75 -19.34,6.92 -3.3,-1.16 -5.85,-3.68 -7.84,-6.46 1.77,-1.02 3.59,-1.96 5.42,-2.86 3.07,4.22 9.44,5.84 13.69,2.41 3.46,-2.25 4.34,-6.6 3.88,-10.45 -7.65,0.18 -15.31,0.05 -22.96,0.08 -0.35,-6 -0.18,-12.81 4.58,-17.19 z" id="path867" style="fill:#d3e180;fill-opacity:1"></path>
      <path fill="#0c0a0a" opacity="1" d="m 81.47,317.68 c 9,-3.13 19.8,3.67 20.25,13.3 -0.32,6.57 1.53,14.05 -2.91,19.66 -5.79,8.21 -19.57,8.22 -25.19,-0.17 -3.95,-4.99 -2.7,-11.62 -2.89,-17.5 -0.37,-6.77 4.34,-13.26 10.74,-15.29 m 1.9,5.84 c -3.33,1.04 -5.96,4.02 -6.49,7.48 -0.26,3.34 -0.11,6.7 -0.11,10.05 -0.23,5.04 4.2,9.69 9.24,9.7 4.86,0.28 9.52,-3.93 9.69,-8.81 0.07,-3.33 0.06,-6.67 0,-10.01 0,-5.92 -6.84,-10.49 -12.33,-8.41 z" id="path869" style="fill:#d3e180;fill-opacity:1"></path>
      <path fill="#0c0a0a" opacity="1" d="m 227.65,357.31 c 7.96,-0.14 15.92,-0.04 23.88,-0.06 -0.02,1.01 -0.04,2.03 -0.05,3.05 -7.93,-0.02 -15.85,-0.05 -23.77,0.02 -0.02,-0.75 -0.05,-2.25 -0.06,-3.01 z" id="path871" style="fill:#d3e180;fill-opacity:1"></path>
    </g>
  </g>
</svg>
